<svg width="52" height="52" viewBox="0 0 52 52" fill="none" xmlns="http://www.w3.org/2000/svg">
<rect width="52" height="52" fill="white"/>
<path fill-rule="evenodd" clip-rule="evenodd" d="M26 0C11.6409 0 0 11.6409 0 26C0 40.3591 11.6409 52 26 52C40.3591 52 52 40.3591 52 26C52 11.6409 40.3591 0 26 0ZM28.3636 35.4545C28.3636 36.0814 28.1146 36.6826 27.6713 37.1259C27.2281 37.5692 26.6269 37.8182 26 37.8182C25.3731 37.8182 24.7719 37.5692 24.3287 37.1259C23.8854 36.6826 23.6364 36.0814 23.6364 35.4545V28.3636H16.5455C15.9186 28.3636 15.3174 28.1146 14.8741 27.6713C14.4308 27.2281 14.1818 26.6269 14.1818 26C14.1818 25.3731 14.4308 24.7719 14.8741 24.3287C15.3174 23.8854 15.9186 23.6364 16.5455 23.6364H23.6364V16.5455C23.6364 15.9186 23.8854 15.3174 24.3287 14.8741C24.7719 14.4308 25.3731 14.1818 26 14.1818C26.6269 14.1818 27.2281 14.4308 27.6713 14.8741C28.1146 15.3174 28.3636 15.9186 28.3636 16.5455V23.6364H35.4545C36.0814 23.6364 36.6826 23.8854 37.1259 24.3287C37.5692 24.7719 37.8182 25.3731 37.8182 26C37.8182 26.6269 37.5692 27.2281 37.1259 27.6713C36.6826 28.1146 36.0814 28.3636 35.4545 28.3636H28.3636V35.4545Z" fill="black"/>
</svg>
