<svg width="1920" height="228" viewBox="0 0 1920 228" fill="none" xmlns="http://www.w3.org/2000/svg">
<path d="M207.786 188.703C191.364 188.704 61.7555 159.528 -0.993068 139.965L-0.99306 -6.82886L1921.99 0.180069L1921.99 140.545L1495.45 227.867L999.806 153.577C742.641 165.285 224.207 188.701 207.786 188.703Z" fill="black"/>
<g clip-path="url(#clip0_838_1297)">
<path d="M73.363 57.7442L68.1816 69.3287L76.9899 71.9615L85.7982 64.063L94.6065 71.9615L103.757 69.3392L99.2697 57.7442L85.7982 53.5316" fill="#E67016"/>
<path d="M92.0159 113.534L97.1972 126.198L89.4252 119.353L85.7983 130.411L82.6894 119.353L75.4355 126.198L79.4977 113.561L92.0159 113.534Z" fill="#CC9600"/>
<path d="M85.798 43.0002L73.8809 55.6379L85.798 51.9519L98.2332 55.6379L85.798 43.0002Z" fill="#67B93E"/>
<path d="M68.5342 72.0932L69.7363 91.9712L85.7984 89.8649L102.897 91.9712L103.933 71.9615L94.6067 74.5944L85.7984 81.9664L76.9901 74.5944L68.5342 72.0932Z" fill="#DB261D"/>
<path d="M92.0152 111.454H79.5799L69.7354 94.0775L85.7975 91.9712L102.896 94.0775" fill="#0071B7"/>
<path d="M71.1762 100.133L74.228 105.525L63 117.247L65.0725 103.029L71.1762 100.133Z" fill="#3BB3C3"/>
<path d="M101.067 100.049L97.8291 105.33L108.648 117.441L107.062 103.161L101.067 100.049Z" fill="#3BB3C3"/>
<path d="M85.8243 66.6603L77.999 73.4379L85.8243 79.8047L93.3236 73.4379L85.8243 66.6603Z" fill="#7A1A66"/>
</g>
<path d="M118.956 108.072V57.78H123.869V108.072H118.956Z" fill="white"/>
<path d="M132.002 108.072V73.0502H136.384V78.8264C139.438 75.7723 142.127 73.8912 144.451 73.183C145.535 72.8511 146.896 72.6851 148.534 72.6851C150.172 72.6851 151.743 73.2162 153.248 74.2785C154.775 75.3408 155.782 76.9453 156.269 79.092C159.478 75.883 162.233 73.9244 164.535 73.2162C165.619 72.8621 166.77 72.6851 167.987 72.6851C170.532 72.6851 172.623 73.4597 174.261 75.0088C175.899 76.558 176.718 78.8817 176.718 81.98V108.072H172.336V81.98C172.336 80.3202 171.738 78.9813 170.543 77.9633C169.37 76.9231 168.098 76.4031 166.725 76.4031C163.472 76.4031 160.086 78.3174 156.567 82.146V108.072H152.186V81.98C152.186 80.3202 151.588 78.9813 150.393 77.9633C149.22 76.9231 147.947 76.4031 146.575 76.4031C143.3 76.4031 139.903 78.3174 136.384 82.146V108.072H132.002Z" fill="white"/>
<path d="M184.685 121.683V73.0502H189.067V78.4944C189.598 77.4985 190.472 76.5027 191.689 75.5068C193.991 73.6256 196.392 72.6851 198.893 72.6851C203.54 72.6851 207.081 75.2301 209.515 80.3202C210.91 83.2415 211.607 86.4394 211.607 89.9139C211.607 96.0221 210.113 100.88 207.125 104.487C204.957 107.121 202.068 108.437 198.461 108.437C196.425 108.437 194.455 107.829 192.552 106.612C190.649 105.372 189.487 104.31 189.067 103.425V121.683H184.685ZM189.067 99.6404C190.085 101.101 191.324 102.318 192.785 103.292C194.245 104.244 195.628 104.719 196.934 104.719C198.262 104.719 199.368 104.598 200.254 104.354C201.161 104.089 202.046 103.624 202.909 102.96C203.795 102.274 204.547 101.389 205.167 100.304C206.539 97.9142 207.225 94.4508 207.225 89.9139C207.225 84.3812 205.941 80.4862 203.374 78.2289C202.002 77.0117 200.276 76.4031 198.196 76.4031C195.407 76.4031 192.973 77.576 190.892 79.9219C190.361 80.5194 189.753 81.2829 189.067 82.2124V99.6404Z" fill="white"/>
<path d="M218.412 99.1425V73.0502H222.794V99.1425C222.794 100.802 223.38 102.152 224.553 103.192C225.748 104.21 227.032 104.719 228.404 104.719C231.68 104.719 235.077 102.805 238.595 98.9765V73.0502H242.977V108.072H238.595V102.296C235.453 105.372 232.764 107.253 230.529 107.94C229.444 108.271 228.316 108.437 227.143 108.437C224.598 108.437 222.506 107.663 220.869 106.114C219.231 104.565 218.412 102.241 218.412 99.1425Z" fill="white"/>
<path d="M250.944 108.139V57.78H255.326V108.139H250.944Z" fill="white"/>
<path d="M263.194 101.433L266.48 99.3085C267.653 101.123 268.959 102.484 270.397 103.392C271.836 104.277 273.595 104.719 275.676 104.719C277.844 104.719 279.604 104.133 280.954 102.96C282.083 101.986 282.647 100.791 282.647 99.3749C282.647 97.9585 282.403 96.8298 281.917 95.9889C281.43 95.1479 280.744 94.4618 279.858 93.9307C278.376 93.0897 276.826 92.4811 275.211 92.1049C273.617 91.7065 272.356 91.3524 271.426 91.0426C270.519 90.7107 269.579 90.268 268.605 89.7148C267.631 89.1615 266.79 88.5418 266.082 87.8558C264.466 86.2845 263.659 84.2152 263.659 81.6481C263.659 79.0588 264.688 76.9231 266.746 75.2412C268.826 73.5371 271.471 72.6851 274.68 72.6851C278.464 72.6851 281.662 74.0461 284.273 76.7682C284.76 77.2772 285.17 77.7752 285.502 78.2621L282.481 80.5194C282.326 80.3645 282.016 80.0436 281.551 79.5567C281.087 79.0477 280.788 78.7268 280.655 78.594L279.792 77.8969C279.394 77.5428 279.062 77.3104 278.796 77.1998L277.667 76.8014C276.959 76.5358 275.764 76.4031 274.082 76.4031C272.4 76.4031 270.951 76.8899 269.733 77.8637C268.516 78.8153 267.908 79.8665 267.908 81.0173C267.908 82.1681 268.107 83.0976 268.505 83.8058C268.904 84.4919 269.501 85.0894 270.298 85.5984C271.581 86.3951 273.064 87.048 274.746 87.557C276.428 88.066 277.535 88.409 278.066 88.5861C278.619 88.7631 279.349 89.0398 280.257 89.416C281.186 89.7701 281.905 90.1131 282.414 90.4451C282.946 90.777 283.543 91.2197 284.207 91.7729C284.871 92.3041 285.38 92.8684 285.734 93.4659C286.597 94.9708 287.029 96.6085 287.029 98.379C287.029 101.322 285.911 103.735 283.676 105.616C281.441 107.497 278.851 108.437 275.908 108.437C272.965 108.437 270.486 107.884 268.472 106.778C266.48 105.649 264.721 103.867 263.194 101.433Z" fill="white"/>
<path d="M292.075 99.5409C292.075 97.9474 292.274 96.5643 292.672 95.3913C293.07 94.1963 293.69 93.145 294.531 92.2377C295.394 91.3082 296.368 90.4893 297.452 89.7812C298.537 89.073 299.887 88.4312 301.502 87.8558C304.446 86.8156 308.042 85.8751 312.291 85.0341C312.291 81.5374 311.616 79.2026 310.266 78.0297C309.071 76.9895 307.334 76.4695 305.054 76.4695C302.266 76.4695 299.865 77.5317 297.851 79.6563C296.988 80.5194 296.39 81.294 296.058 81.98L292.904 79.8887C295.383 75.1305 299.599 72.7515 305.552 72.7515C310.886 72.7515 314.294 74.7986 315.777 78.8928C316.374 80.5526 316.673 82.5665 316.673 84.9345V103.159C316.673 103.801 316.795 104.675 317.038 105.782C317.282 106.888 317.503 107.652 317.702 108.072H313.287C312.623 107.74 312.291 105.881 312.291 102.495C309.171 106.501 305.729 108.504 301.967 108.504C297.806 108.504 294.918 107.043 293.303 104.122C292.484 102.639 292.075 101.112 292.075 99.5409ZM297.286 95.7233C296.733 96.7413 296.456 98.0692 296.456 99.7068C296.456 101.345 297.032 102.606 298.183 103.491C299.333 104.354 300.606 104.786 302 104.786C303.417 104.786 304.656 104.576 305.718 104.155C306.803 103.735 307.787 103.192 308.673 102.529C310.288 101.311 311.494 100.227 312.291 99.2753V88.7521C308.086 89.8365 305.597 90.5004 304.822 90.7438C300.927 92.0053 298.415 93.6651 297.286 95.7233Z" fill="white"/>
<path d="M324.574 93.2004V57.78H332.508V91.3082C332.508 96.9073 334.311 100.382 337.919 101.732C338.848 102.086 339.888 102.263 341.039 102.263C342.19 102.263 343.23 102.108 344.16 101.798C345.089 101.488 345.841 101.101 346.417 100.636C346.992 100.172 347.49 99.5851 347.911 98.8769C348.331 98.1466 348.641 97.4827 348.84 96.8852C349.039 96.2876 349.205 95.5794 349.338 94.7606C349.471 93.6983 349.537 92.5475 349.537 91.3082V57.78H357.637V93.2004C357.637 98.2683 355.966 102.285 352.625 105.251C349.858 107.707 346.007 108.935 341.072 108.935C333.57 108.935 328.59 106.092 326.134 100.404C325.094 98.0581 324.574 95.6569 324.574 93.2004Z" fill="white"/>
<path d="M364.741 108.072V57.78H372.675V108.072H364.741Z" fill="white"/>
<path d="M376.791 95.1921L383.165 93.1008C383.187 93.1008 383.232 93.2668 383.298 93.5987C383.364 93.9307 383.475 94.3733 383.63 94.9266C383.807 95.4577 384.039 96.0552 384.327 96.7192C384.637 97.361 385.079 98.0138 385.655 98.6778C386.23 99.3195 386.905 99.906 387.68 100.437C389.406 101.654 391.553 102.263 394.12 102.263C396.687 102.263 398.568 101.632 399.763 100.371C400.98 99.1093 401.589 97.6155 401.589 95.8893C401.589 94.1409 401.412 92.7356 401.058 91.6733C400.704 90.5889 400.084 89.6484 399.199 88.8517C397.716 87.5238 395.149 86.3287 391.497 85.2665C385.057 83.3853 380.919 80.4751 379.082 76.5358C378.13 74.4777 377.655 72.0544 377.655 69.2659C377.655 66.92 378.484 64.6295 380.144 62.3942C383.043 58.6984 387.16 56.8505 392.493 56.8505C396.72 56.8505 400.184 58.123 402.884 60.668C404.809 62.4606 406.248 64.718 407.199 67.4401L407.83 69.1995C408.029 69.7306 408.162 70.0736 408.228 70.2286L401.755 72.5191C400.294 67.8716 398.015 65.0057 394.917 63.9213C394.142 63.6557 393.334 63.5229 392.493 63.5229C387.89 63.5229 385.588 65.8909 385.588 70.6269C385.588 72.7957 386.23 74.4555 387.514 75.6064C388.576 76.6022 389.97 77.3879 391.697 77.9633L393.29 78.4944C394.197 78.8043 394.695 78.9702 394.784 78.9924L396.244 79.4903C400.029 80.8182 402.585 81.9911 403.913 83.0091C405.86 84.514 407.133 85.8972 407.73 87.1587C408.925 89.748 409.523 92.4811 409.523 95.3581C409.523 97.6155 408.881 99.906 407.598 102.23C405.871 105.35 403.138 107.397 399.398 108.371C397.96 108.747 396.388 108.935 394.684 108.935C392.98 108.935 391.376 108.78 389.871 108.471C388.388 108.161 387.104 107.74 386.02 107.209C384.936 106.678 383.94 106.069 383.032 105.383C382.125 104.697 381.361 103.978 380.742 103.226C380.122 102.451 379.58 101.688 379.115 100.935C378.65 100.161 378.274 99.4302 377.987 98.7441C377.721 98.0581 377.5 97.4495 377.323 96.9184C377.146 96.3872 377.013 95.9667 376.924 95.6569C376.858 95.3471 376.814 95.1921 376.791 95.1921Z" fill="white"/>
<path d="M368.745 43.0002L357 53.2607L368.745 50.2681L381 53.2607L368.745 43.0002Z" fill="#67B93E"/>
<path d="M1075.16 91.6506C1075 90.7327 1074.92 89.8049 1074.92 88.8674C1074.92 87.9299 1075 87.0071 1075.14 86.0989C1075.29 85.1907 1075.5 84.3069 1075.79 83.4475C1076.08 82.5784 1076.46 81.7825 1076.92 81.0598C1077.38 80.3274 1077.92 79.6877 1078.51 79.1409C1079.78 77.9788 1081.36 77.3977 1083.24 77.3977C1085.64 77.3977 1087.53 78.594 1088.91 80.9866C1089.59 82.1487 1090.04 83.345 1090.27 84.5754V84.5901L1087.23 85.4104C1087.07 84.3655 1086.89 83.6038 1086.67 83.1252C1086.46 82.637 1086.24 82.2317 1086.03 81.9094C1085.81 81.5774 1085.58 81.304 1085.32 81.0891C1084.72 80.5911 1084.03 80.342 1083.26 80.342C1082.5 80.342 1081.84 80.5178 1081.29 80.8694C1080.75 81.2112 1080.3 81.6653 1079.95 82.2317C1079.6 82.7883 1079.3 83.4426 1079.07 84.1946C1078.64 85.5813 1078.42 87.1438 1078.42 88.8821C1078.42 93.4915 1079.52 96.2454 1081.71 97.1438C1082.17 97.3391 1082.67 97.4368 1083.2 97.4368C1083.73 97.4368 1084.2 97.3684 1084.61 97.2317C1085.03 97.095 1085.38 96.9192 1085.66 96.7043C1085.94 96.4797 1086.19 96.2161 1086.41 95.9133C1086.63 95.6106 1086.81 95.3079 1086.93 95.0051C1087.07 94.6926 1087.18 94.3752 1087.26 94.053C1087.4 93.4866 1087.48 92.9592 1087.48 92.4709L1090.74 92.925C1090.3 94.8 1089.54 96.426 1088.44 97.803C1087.06 99.5217 1085.31 100.381 1083.21 100.381C1080.64 100.381 1078.56 99.1555 1076.99 96.7043C1076.1 95.3274 1075.49 93.6428 1075.16 91.6506ZM1095.5 96.0159C1095.5 96.592 1095.65 97.012 1095.93 97.2756C1096.21 97.5295 1096.56 97.6565 1096.98 97.6565C1097.4 97.6565 1097.72 97.6321 1097.92 97.5833C1098.14 97.5344 1098.35 97.4612 1098.55 97.3635L1099.09 97.0852C1099.25 96.9973 1099.42 96.8752 1099.62 96.719L1100.04 96.3821C1100.12 96.3137 1100.25 96.2014 1100.43 96.0452L1100.69 95.7961V92.178C1098.5 92.6858 1097.07 93.2327 1096.4 93.8186C1095.8 94.3459 1095.5 95.0784 1095.5 96.0159ZM1101.13 100C1100.84 99.8245 1100.69 99.3704 1100.69 98.6379L1100.41 98.9602C1099.57 99.8586 1098.37 100.308 1096.81 100.308C1094.91 100.308 1093.61 99.6389 1092.91 98.301C1092.55 97.637 1092.37 96.8704 1092.37 96.0012C1092.37 95.1321 1092.52 94.3606 1092.82 93.6868C1093.14 93.0032 1093.64 92.4026 1094.33 91.885C1095.59 90.9475 1097.71 90.1809 1100.69 89.5852C1100.69 88.8918 1100.67 88.467 1100.62 88.3108C1100.58 88.1545 1100.53 88.0081 1100.47 87.8713C1100.42 87.7346 1100.36 87.6321 1100.28 87.5637C1100.2 87.4856 1100.1 87.4026 1099.99 87.3147C1099.87 87.2268 1099.73 87.1633 1099.58 87.1243C1099.2 87.0266 1098.77 86.9778 1098.3 86.9778C1097.84 86.9778 1097.41 87.051 1097 87.1975C1096.6 87.3342 1096.28 87.4905 1096.03 87.6663C1095.8 87.842 1095.58 88.0471 1095.39 88.2815C1095.13 88.594 1094.95 88.8674 1094.84 89.1018L1092.79 87.842C1093.22 86.9534 1093.59 86.3625 1093.91 86.0696C1094.22 85.7668 1094.53 85.5081 1094.83 85.2932C1095.13 85.0784 1095.46 84.9075 1095.8 84.7805C1096.62 84.4778 1097.45 84.3264 1098.3 84.3264C1099.15 84.3264 1099.83 84.3752 1100.32 84.4729C1100.83 84.5608 1101.31 84.7268 1101.76 84.9709C1102.22 85.2053 1102.59 85.5227 1102.89 85.9231C1103.51 86.7922 1103.82 88.0618 1103.82 89.7317V97.8176C1103.82 98.0911 1103.87 98.4768 1103.97 98.9749C1104.08 99.4729 1104.18 99.8147 1104.26 100H1101.13ZM1105.36 87.1975V84.5461H1107.66V78.9065H1110.8V84.5461H1114.03V87.1975H1110.8V95.4885C1110.8 96.3186 1110.94 96.8899 1111.24 97.2024C1111.54 97.5051 1112.04 97.6565 1112.75 97.6565C1113.03 97.6565 1113.31 97.637 1113.59 97.5979C1113.89 97.5588 1114.03 97.5344 1114.03 97.5247V99.7366C1113.51 99.9807 1113.1 100.137 1112.8 100.205C1112.52 100.274 1112.17 100.308 1111.75 100.308C1111.34 100.308 1111.03 100.303 1110.83 100.293C1110.63 100.283 1110.39 100.249 1110.09 100.191C1109.81 100.132 1109.56 100.054 1109.35 99.9563C1109.14 99.8489 1108.93 99.6975 1108.7 99.5022C1108.48 99.3069 1108.29 99.0725 1108.15 98.7991C1107.82 98.1741 1107.66 97.3635 1107.66 96.3674V87.1975H1105.36ZM1118.25 90.4495H1123.67C1123.67 89.6877 1123.54 89.0286 1123.28 88.4719C1122.77 87.4465 1122.07 86.9338 1121.17 86.9338C1120.63 86.9338 1120.16 87.0559 1119.75 87.3C1119.35 87.5344 1119.04 87.842 1118.84 88.2229C1118.45 88.9358 1118.25 89.678 1118.25 90.4495ZM1115.79 97.012C1115.49 96.3381 1115.27 95.6497 1115.15 94.9465C1115.03 94.2336 1114.97 93.3401 1114.97 92.2659C1114.97 91.1819 1115.1 90.1321 1115.35 89.1165C1115.61 88.1008 1115.93 87.2952 1116.33 86.6995C1116.73 86.094 1117.22 85.6057 1117.78 85.2346C1118.75 84.5999 1119.89 84.2825 1121.2 84.2825C1122.43 84.2825 1123.5 84.6487 1124.42 85.3811C1126.14 86.7678 1126.96 89.3411 1126.88 93.1008H1118.11C1118.11 95.0735 1118.63 96.4016 1119.67 97.0852C1120.21 97.4368 1120.77 97.6125 1121.36 97.6125C1121.95 97.6125 1122.45 97.5393 1122.84 97.3928C1123.23 97.2463 1123.54 97.0803 1123.78 96.8948C1124.01 96.7092 1124.22 96.4944 1124.42 96.2502C1124.68 95.9084 1124.86 95.6155 1124.96 95.3713L1126.95 96.6604C1126.23 97.9202 1125.46 98.8186 1124.64 99.3557C1123.73 99.9612 1122.73 100.264 1121.64 100.264C1120.55 100.264 1119.62 100.122 1118.85 99.8391C1118.09 99.5559 1117.47 99.1799 1116.98 98.7112C1116.5 98.2424 1116.1 97.676 1115.79 97.012ZM1139.3 94.009C1138.79 94.5266 1138.16 94.9319 1137.38 95.2249C1136.62 95.5178 1135.85 95.6643 1135.07 95.6643C1134.29 95.6643 1133.65 95.5667 1133.15 95.3713C1133.06 95.4592 1132.9 95.5813 1132.67 95.7375C1132.21 96.05 1131.98 96.3772 1131.98 96.719C1131.98 97.178 1132.72 97.4954 1134.19 97.6711C1134.46 97.7102 1134.63 97.7346 1134.7 97.7444C1134.77 97.7444 1134.95 97.7493 1135.23 97.759C1135.51 97.759 1135.73 97.7639 1135.89 97.7737C1136.05 97.7737 1136.29 97.7932 1136.64 97.8323C1136.99 97.8713 1137.32 97.925 1137.63 97.9934C1139.31 98.3743 1140.39 98.7747 1140.86 99.1946C1141.83 100.083 1142.32 101.143 1142.32 102.373C1142.32 105.205 1139.92 106.621 1135.11 106.621C1133.11 106.621 1131.47 106.289 1130.18 105.625C1128.8 104.922 1128.11 103.843 1128.11 102.388C1128.11 101.099 1129.05 100.098 1130.92 99.385C1130.34 99.3069 1129.84 99.053 1129.44 98.6233C1129.04 98.1838 1128.84 97.6663 1128.84 97.0706C1128.84 95.8206 1129.6 94.8684 1131.1 94.2141C1130.59 93.9504 1130.12 93.3743 1129.69 92.4856C1129.26 91.5872 1129.05 90.6399 1129.05 89.6438C1129.05 88.6477 1129.33 87.7297 1129.88 86.8899C1130.45 86.05 1131.21 85.4055 1132.17 84.9563C1133.13 84.5071 1134.2 84.2825 1135.38 84.2825C1135.92 84.2825 1136.49 84.3899 1137.06 84.6047C1137.65 84.8098 1138.06 85.0198 1138.31 85.2346C1139.15 84.6292 1140.04 84.3069 1141 84.2678C1141.14 84.2581 1141.36 84.2532 1141.68 84.2532C1141.99 84.2434 1142.21 84.2385 1142.35 84.2385V86.8752H1142.29C1141.34 86.7776 1140.71 86.8118 1140.39 86.9778C1140.29 87.0266 1140.24 87.0754 1140.24 87.1243C1140.25 87.1731 1140.31 87.3489 1140.42 87.6516C1140.52 87.9543 1140.61 88.1887 1140.67 88.3547C1140.83 88.9016 1140.91 89.5022 1140.91 90.1565C1140.91 90.801 1140.77 91.4749 1140.49 92.178C1140.22 92.8811 1139.82 93.4915 1139.3 94.009ZM1135.19 86.9338C1134.29 86.9338 1133.56 87.1877 1133 87.6956C1132.46 88.2034 1132.18 88.9407 1132.18 89.9075C1132.18 90.8645 1132.43 91.6213 1132.93 92.178C1133.44 92.7249 1134.19 92.9983 1135.17 92.9983C1136.43 92.9983 1137.25 92.3147 1137.63 90.9475C1137.73 90.6057 1137.78 90.2639 1137.78 89.9221C1137.78 89.5706 1137.73 89.2288 1137.63 88.8967C1137.54 88.5647 1137.39 88.2473 1137.19 87.9446C1136.75 87.2708 1136.08 86.9338 1135.19 86.9338ZM1131.77 101.143C1131.59 101.367 1131.45 101.582 1131.36 101.787C1131.28 101.992 1131.23 102.207 1131.23 102.432C1131.23 102.666 1131.28 102.862 1131.36 103.018C1131.45 103.184 1131.56 103.316 1131.69 103.413C1131.81 103.521 1131.98 103.614 1132.2 103.692C1132.42 103.77 1132.63 103.823 1132.81 103.853C1133 103.892 1133.23 103.921 1133.52 103.941C1133.91 103.97 1134.32 103.985 1134.76 103.985C1135.21 103.985 1135.53 103.98 1135.73 103.97C1135.93 103.97 1136.2 103.96 1136.53 103.941C1136.87 103.921 1137.14 103.887 1137.35 103.838C1137.57 103.799 1137.8 103.74 1138.06 103.662C1138.31 103.584 1138.51 103.487 1138.64 103.369C1139 103.096 1139.17 102.759 1139.17 102.359C1139.17 101.958 1139 101.626 1138.67 101.363C1138.34 101.099 1137.92 100.904 1137.41 100.777C1136.91 100.659 1136.4 100.567 1135.89 100.498C1135.38 100.43 1134.9 100.376 1134.44 100.337C1133.99 100.298 1133.71 100.254 1133.59 100.205C1132.56 100.615 1131.96 100.928 1131.77 101.143ZM1146.52 90.4934C1146.47 91.011 1146.44 91.5676 1146.44 92.1633C1146.44 92.759 1146.47 93.2961 1146.52 93.7747C1146.58 94.2532 1146.69 94.7317 1146.83 95.2102C1146.99 95.6887 1147.18 96.1038 1147.42 96.4553C1147.95 97.2366 1148.69 97.6272 1149.64 97.6272C1151.76 97.6272 1152.82 95.845 1152.82 92.2805C1152.82 90.1907 1152.51 88.7405 1151.89 87.9299C1151.38 87.2659 1150.63 86.9338 1149.64 86.9338C1147.84 86.9338 1146.8 88.1204 1146.52 90.4934ZM1143.3 92.2659C1143.3 89.8245 1143.86 87.886 1144.99 86.4504C1146.12 85.0051 1147.67 84.2825 1149.64 84.2825C1150.95 84.2825 1152.09 84.6145 1153.04 85.2786C1154.99 86.636 1155.96 88.97 1155.96 92.2805C1155.96 96.4114 1154.67 98.9456 1152.09 99.8831C1151.38 100.147 1150.56 100.279 1149.64 100.279C1148.74 100.279 1147.92 100.147 1147.2 99.8831C1146.48 99.6194 1145.88 99.2532 1145.4 98.7844C1144.92 98.3157 1144.52 97.7395 1144.2 97.0559C1143.6 95.7864 1143.3 94.1897 1143.3 92.2659ZM1158.43 100V84.5461H1161.57V86.6702C1161.61 86.6213 1161.7 86.4944 1161.83 86.2893L1162.18 85.762C1162.91 84.7756 1164.1 84.2825 1165.76 84.2825C1165.93 84.2825 1166.11 84.2971 1166.29 84.3264V86.9485C1164.51 86.9778 1163.23 87.4709 1162.45 88.428C1162.1 88.8577 1161.8 89.4094 1161.57 90.0833V100H1158.43ZM1174.72 78.0862L1169.51 82.4954L1168.23 81.2356L1173.02 76.2844L1174.72 78.0862ZM1167.78 100V84.5461H1170.91V100H1167.78ZM1178.27 96.0159C1178.27 96.592 1178.41 97.012 1178.69 97.2756C1178.98 97.5295 1179.33 97.6565 1179.75 97.6565C1180.17 97.6565 1180.48 97.6321 1180.68 97.5833C1180.9 97.5344 1181.11 97.4612 1181.31 97.3635L1181.86 97.0852C1182.01 96.9973 1182.19 96.8752 1182.38 96.719L1182.81 96.3821C1182.89 96.3137 1183.01 96.2014 1183.19 96.0452L1183.45 95.7961V92.178C1181.27 92.6858 1179.83 93.2327 1179.16 93.8186C1178.57 94.3459 1178.27 95.0784 1178.27 96.0159ZM1183.89 100C1183.6 99.8245 1183.45 99.3704 1183.45 98.6379L1183.17 98.9602C1182.33 99.8586 1181.13 100.308 1179.57 100.308C1177.68 100.308 1176.38 99.6389 1175.67 98.301C1175.31 97.637 1175.13 96.8704 1175.13 96.0012C1175.13 95.1321 1175.28 94.3606 1175.59 93.6868C1175.9 93.0032 1176.4 92.4026 1177.1 91.885C1178.36 90.9475 1180.47 90.1809 1183.45 89.5852C1183.45 88.8918 1183.43 88.467 1183.38 88.3108C1183.34 88.1545 1183.29 88.0081 1183.23 87.8713C1183.18 87.7346 1183.12 87.6321 1183.04 87.5637C1182.96 87.4856 1182.87 87.4026 1182.75 87.3147C1182.63 87.2268 1182.5 87.1633 1182.34 87.1243C1181.96 87.0266 1181.53 86.9778 1181.07 86.9778C1180.61 86.9778 1180.17 87.051 1179.76 87.1975C1179.36 87.3342 1179.04 87.4905 1178.79 87.6663C1178.56 87.842 1178.35 88.0471 1178.15 88.2815C1177.9 88.594 1177.72 88.8674 1177.61 89.1018L1175.56 87.842C1175.99 86.9534 1176.36 86.3625 1176.67 86.0696C1176.98 85.7668 1177.29 85.5081 1177.59 85.2932C1177.9 85.0784 1178.22 84.9075 1178.56 84.7805C1179.38 84.4778 1180.22 84.3264 1181.07 84.3264C1181.92 84.3264 1182.59 84.3752 1183.09 84.4729C1183.59 84.5608 1184.07 84.7268 1184.52 84.9709C1184.98 85.2053 1185.36 85.5227 1185.65 85.9231C1186.28 86.7922 1186.59 88.0618 1186.59 89.7317V97.8176C1186.59 98.0911 1186.64 98.4768 1186.73 98.9749C1186.84 99.4729 1186.94 99.8147 1187.03 100H1183.89ZM1188.86 96.8948L1191.03 95.5764C1191.37 96.0647 1191.69 96.4553 1191.98 96.7483C1192.67 97.4319 1193.55 97.7737 1194.6 97.7737C1195.45 97.7737 1196.06 97.5979 1196.42 97.2463C1196.75 96.9241 1196.92 96.4358 1196.92 95.7815C1196.92 95.0393 1196.68 94.4827 1196.2 94.1116C1195.77 93.7893 1195.34 93.5696 1194.92 93.4524L1193.55 93.0569C1191.95 92.6077 1190.81 92.0022 1190.1 91.2405C1189.39 90.469 1189.03 89.4485 1189.03 88.179C1189.03 87.095 1189.48 86.1868 1190.37 85.4543C1191.3 84.6731 1192.65 84.2825 1194.4 84.2825C1195.97 84.2825 1197.32 84.8196 1198.45 85.8938C1198.94 86.3528 1199.25 86.7385 1199.38 87.051L1197.56 88.4866C1196.88 87.6565 1196.19 87.1438 1195.51 86.9485C1195.16 86.8411 1194.69 86.7874 1194.12 86.7874C1193.55 86.7874 1193.06 86.9338 1192.65 87.2268C1192.25 87.5198 1192.05 87.9495 1192.05 88.5159C1192.05 89.1702 1192.34 89.678 1192.92 90.0393C1193.42 90.3616 1193.94 90.6008 1194.45 90.7571L1195.77 91.1233C1197.84 91.7092 1199.13 92.7004 1199.62 94.0969C1199.83 94.6633 1199.93 95.3372 1199.93 96.1184C1199.93 96.8899 1199.69 97.5979 1199.2 98.2424C1198.72 98.887 1198.09 99.385 1197.3 99.7366C1196.5 100.088 1195.7 100.264 1194.89 100.264C1194.09 100.264 1193.43 100.215 1192.9 100.117C1192.38 100.02 1191.88 99.8489 1191.39 99.6047C1190.45 99.1262 1189.6 98.2229 1188.86 96.8948Z" fill="white"/>
<path d="M481.688 85.8059C481.59 86.3821 481.521 86.9241 481.482 87.4319C481.443 87.9397 481.424 88.4622 481.424 88.9993C481.424 89.5266 481.443 90.0491 481.482 90.5667C481.521 91.0842 481.59 91.6311 481.688 92.2073C481.795 92.7834 481.927 93.3157 482.083 93.804C482.239 94.2922 482.449 94.7659 482.713 95.2249C482.986 95.6741 483.289 96.0598 483.621 96.3821C484.373 97.0852 485.32 97.4368 486.463 97.4368C489.637 97.4368 491.224 94.6145 491.224 88.97C491.224 84.3704 490.149 81.5969 488.001 80.6497C487.532 80.4446 487.01 80.342 486.434 80.342C485.867 80.342 485.34 80.4446 484.852 80.6497C484.373 80.8547 483.963 81.1282 483.621 81.47C483.289 81.802 482.986 82.2073 482.713 82.6858C482.449 83.1643 482.239 83.6575 482.083 84.1653C481.927 84.6731 481.795 85.22 481.688 85.8059ZM478.069 91.1965C477.972 90.4543 477.923 89.717 477.923 88.9846C477.923 88.2522 477.967 87.5149 478.055 86.7727C478.143 86.0305 478.289 85.2786 478.494 84.5168C478.699 83.7454 478.953 83.0178 479.256 82.3342C479.559 81.6506 479.939 81.0061 480.398 80.4006C480.867 79.7854 481.39 79.2581 481.966 78.8186C483.206 77.8713 484.715 77.3977 486.492 77.3977C488.934 77.3977 490.887 78.4036 492.352 80.4153C493.934 82.6028 494.725 85.4592 494.725 88.9846C494.725 92.5784 493.963 95.4104 492.439 97.4807C491.316 98.9944 489.852 99.9172 488.045 100.249C488.064 100.63 488.094 100.86 488.133 100.938C488.191 101.055 488.265 101.157 488.353 101.245C488.44 101.333 488.533 101.387 488.631 101.406C488.738 101.426 488.885 101.45 489.07 101.48C489.305 101.519 489.769 101.538 490.462 101.538H493.831V104.146H491.766C489.764 104.146 488.567 104.112 488.177 104.043C487.786 103.985 487.43 103.916 487.107 103.838C486.795 103.76 486.57 103.667 486.434 103.56C486.297 103.462 486.136 103.33 485.95 103.164C485.774 102.998 485.652 102.813 485.584 102.608C485.525 102.403 485.457 102.154 485.379 101.861C485.291 101.519 485.237 100.991 485.218 100.279C483.382 99.9954 481.829 99.0579 480.56 97.4661C479.251 95.8254 478.421 93.7356 478.069 91.1965ZM497.391 96.1331V84.5461H500.525V95.3127C500.525 96.0159 500.735 96.5774 501.155 96.9973C501.585 97.4075 502.088 97.6125 502.664 97.6125C503.25 97.6125 503.831 97.4417 504.407 97.0999C504.993 96.7483 505.428 96.4016 505.711 96.0598V84.5461H508.846V100H505.711V98.3596C504.441 99.6292 503.123 100.264 501.756 100.264C500.525 100.264 499.505 99.9417 498.694 99.2971C497.825 98.6038 497.391 97.5491 497.391 96.1331ZM511.834 100V84.5461H514.969V100H511.834ZM511.614 83.1985V79.6389H515.174V83.1985H511.614ZM520.784 90.4495H526.204C526.204 89.6877 526.072 89.0286 525.809 88.4719C525.301 87.4465 524.598 86.9338 523.699 86.9338C523.162 86.9338 522.688 87.0559 522.278 87.3C521.878 87.5344 521.575 87.842 521.37 88.2229C520.979 88.9358 520.784 89.678 520.784 90.4495ZM518.323 97.012C518.021 96.3381 517.806 95.6497 517.679 94.9465C517.562 94.2336 517.503 93.3401 517.503 92.2659C517.503 91.1819 517.63 90.1321 517.884 89.1165C518.138 88.1008 518.465 87.2952 518.865 86.6995C519.266 86.094 519.749 85.6057 520.315 85.2346C521.282 84.5999 522.42 84.2825 523.729 84.2825C524.959 84.2825 526.033 84.6487 526.951 85.3811C528.67 86.7678 529.49 89.3411 529.412 93.1008H520.638C520.638 95.0735 521.16 96.4016 522.205 97.0852C522.742 97.4368 523.304 97.6125 523.89 97.6125C524.485 97.6125 524.979 97.5393 525.369 97.3928C525.76 97.2463 526.072 97.0803 526.307 96.8948C526.541 96.7092 526.756 96.4944 526.951 96.2502C527.215 95.9084 527.396 95.6155 527.493 95.3713L529.485 96.6604C528.763 97.9202 527.991 98.8186 527.171 99.3557C526.263 99.9612 525.262 100.264 524.168 100.264C523.084 100.264 522.156 100.122 521.385 99.8391C520.623 99.5559 519.998 99.1799 519.51 98.7112C519.031 98.2424 518.636 97.676 518.323 97.012ZM543.416 88.4133V100H540.281V89.2336C540.281 88.5305 540.066 87.9739 539.637 87.5637C539.217 87.1438 538.714 86.9338 538.128 86.9338C537.542 86.9338 536.961 87.1096 536.385 87.4612C535.809 87.803 535.379 88.1448 535.096 88.4866V100H531.961V84.5461H535.096V86.1868C535.662 85.6204 536.253 85.1614 536.868 84.8098C537.493 84.4583 538.221 84.2825 539.051 84.2825C540.32 84.2825 541.365 84.6292 542.186 85.3225C543.006 86.0061 543.416 87.0364 543.416 88.4133ZM548.968 90.4495H554.388C554.388 89.6877 554.256 89.0286 553.992 88.4719C553.484 87.4465 552.781 86.9338 551.883 86.9338C551.346 86.9338 550.872 87.0559 550.462 87.3C550.062 87.5344 549.759 87.842 549.554 88.2229C549.163 88.9358 548.968 89.678 548.968 90.4495ZM546.507 97.012C546.204 96.3381 545.989 95.6497 545.862 94.9465C545.745 94.2336 545.687 93.3401 545.687 92.2659C545.687 91.1819 545.813 90.1321 546.067 89.1165C546.321 88.1008 546.648 87.2952 547.049 86.6995C547.449 86.094 547.933 85.6057 548.499 85.2346C549.466 84.5999 550.604 84.2825 551.912 84.2825C553.143 84.2825 554.217 84.6487 555.135 85.3811C556.854 86.7678 557.674 89.3411 557.596 93.1008H548.821C548.821 95.0735 549.344 96.4016 550.389 97.0852C550.926 97.4368 551.487 97.6125 552.073 97.6125C552.669 97.6125 553.162 97.5393 553.553 97.3928C553.943 97.2463 554.256 97.0803 554.49 96.8948C554.725 96.7092 554.939 96.4944 555.135 96.2502C555.398 95.9084 555.579 95.6155 555.677 95.3713L557.669 96.6604C556.946 97.9202 556.175 98.8186 555.354 99.3557C554.446 99.9612 553.445 100.264 552.352 100.264C551.268 100.264 550.34 100.122 549.568 99.8391C548.807 99.5559 548.182 99.1799 547.693 98.7112C547.215 98.2424 546.819 97.676 546.507 97.012ZM559.515 96.8948L561.683 95.5764C562.024 96.0647 562.342 96.4553 562.635 96.7483C563.328 97.4319 564.202 97.7737 565.257 97.7737C566.106 97.7737 566.712 97.5979 567.073 97.2463C567.405 96.9241 567.571 96.4358 567.571 95.7815C567.571 95.0393 567.332 94.4827 566.854 94.1116C566.424 93.7893 565.999 93.5696 565.579 93.4524L564.202 93.0569C562.61 92.6077 561.463 92.0022 560.76 91.2405C560.047 90.469 559.69 89.4485 559.69 88.179C559.69 87.095 560.135 86.1868 561.023 85.4543C561.961 84.6731 563.304 84.2825 565.052 84.2825C566.624 84.2825 567.977 84.8196 569.109 85.8938C569.598 86.3528 569.905 86.7385 570.032 87.051L568.216 88.4866C567.532 87.6565 566.849 87.1438 566.165 86.9485C565.813 86.8411 565.35 86.7874 564.773 86.7874C564.207 86.7874 563.719 86.9338 563.309 87.2268C562.908 87.5198 562.708 87.9495 562.708 88.5159C562.708 89.1702 562.996 89.678 563.572 90.0393C564.08 90.3616 564.593 90.6008 565.11 90.7571L566.429 91.1233C568.499 91.7092 569.783 92.7004 570.281 94.0969C570.486 94.6633 570.589 95.3372 570.589 96.1184C570.589 96.8899 570.345 97.5979 569.856 98.2424C569.378 98.887 568.743 99.385 567.952 99.7366C567.161 100.088 566.36 100.264 565.55 100.264C564.749 100.264 564.085 100.215 563.558 100.117C563.04 100.02 562.537 99.8489 562.049 99.6047C561.102 99.1262 560.257 98.2229 559.515 96.8948ZM580.052 96.8948L582.22 95.5764C582.562 96.0647 582.879 96.4553 583.172 96.7483C583.865 97.4319 584.739 97.7737 585.794 97.7737C586.644 97.7737 587.249 97.5979 587.61 97.2463C587.942 96.9241 588.108 96.4358 588.108 95.7815C588.108 95.0393 587.869 94.4827 587.391 94.1116C586.961 93.7893 586.536 93.5696 586.116 93.4524L584.739 93.0569C583.147 92.6077 582 92.0022 581.297 91.2405C580.584 90.469 580.228 89.4485 580.228 88.179C580.228 87.095 580.672 86.1868 581.561 85.4543C582.498 84.6731 583.841 84.2825 585.589 84.2825C587.161 84.2825 588.514 84.8196 589.646 85.8938C590.135 86.3528 590.442 86.7385 590.569 87.051L588.753 88.4866C588.069 87.6565 587.386 87.1438 586.702 86.9485C586.351 86.8411 585.887 86.7874 585.311 86.7874C584.744 86.7874 584.256 86.9338 583.846 87.2268C583.445 87.5198 583.245 87.9495 583.245 88.5159C583.245 89.1702 583.533 89.678 584.109 90.0393C584.617 90.3616 585.13 90.6008 585.647 90.7571L586.966 91.1233C589.036 91.7092 590.32 92.7004 590.818 94.0969C591.023 94.6633 591.126 95.3372 591.126 96.1184C591.126 96.8899 590.882 97.5979 590.394 98.2424C589.915 98.887 589.28 99.385 588.489 99.7366C587.698 100.088 586.897 100.264 586.087 100.264C585.286 100.264 584.622 100.215 584.095 100.117C583.577 100.02 583.074 99.8489 582.586 99.6047C581.639 99.1262 580.794 98.2229 580.052 96.8948ZM596.194 90.4934C596.136 91.011 596.106 91.5676 596.106 92.1633C596.106 92.759 596.136 93.2961 596.194 93.7747C596.253 94.2532 596.355 94.7317 596.502 95.2102C596.658 95.6887 596.854 96.1038 597.088 96.4553C597.615 97.2366 598.357 97.6272 599.314 97.6272C601.434 97.6272 602.493 95.845 602.493 92.2805C602.493 90.1907 602.181 88.7405 601.556 87.9299C601.048 87.2659 600.301 86.9338 599.314 86.9338C597.508 86.9338 596.468 88.1204 596.194 90.4934ZM592.972 92.2659C592.972 89.8245 593.533 87.886 594.656 86.4504C595.789 85.0051 597.342 84.2825 599.314 84.2825C600.623 84.2825 601.756 84.6145 602.713 85.2786C604.656 86.636 605.628 88.97 605.628 92.2805C605.628 96.4114 604.339 98.9456 601.761 99.8831C601.048 100.147 600.232 100.279 599.314 100.279C598.406 100.279 597.591 100.147 596.868 99.8831C596.146 99.6194 595.545 99.2532 595.066 98.7844C594.588 98.3157 594.188 97.7395 593.865 97.0559C593.27 95.7864 592.972 94.1897 592.972 92.2659ZM611.238 86.1868C612.508 84.9172 613.919 84.2825 615.472 84.2825C616.39 84.2825 617.2 84.4631 617.903 84.8245C618.606 85.1858 619.124 85.7327 619.456 86.4651C620.911 85.01 622.356 84.2825 623.792 84.2825C625.032 84.2825 626.102 84.6047 627 85.2493C627.967 85.9426 628.45 86.9973 628.45 88.4133V100H625.315V89.2336C625.315 88.5403 625.062 87.9836 624.554 87.5637C624.046 87.1438 623.489 86.9338 622.884 86.9338C622.288 86.9338 621.702 87.1096 621.126 87.4612C620.55 87.803 620.12 88.1448 619.837 88.4866V100H616.702V89.2336C616.702 88.5305 616.487 87.9739 616.058 87.5637C615.638 87.1438 615.13 86.9338 614.534 86.9338C613.948 86.9338 613.318 87.1145 612.645 87.4758C611.971 87.8274 611.502 88.1643 611.238 88.4866V100H608.104V84.5461H611.238V86.1868ZM633.958 90.4934C633.899 91.011 633.87 91.5676 633.87 92.1633C633.87 92.759 633.899 93.2961 633.958 93.7747C634.017 94.2532 634.119 94.7317 634.266 95.2102C634.422 95.6887 634.617 96.1038 634.852 96.4553C635.379 97.2366 636.121 97.6272 637.078 97.6272C639.197 97.6272 640.257 95.845 640.257 92.2805C640.257 90.1907 639.944 88.7405 639.319 87.9299C638.812 87.2659 638.064 86.9338 637.078 86.9338C635.271 86.9338 634.231 88.1204 633.958 90.4934ZM630.735 92.2659C630.735 89.8245 631.297 87.886 632.42 86.4504C633.553 85.0051 635.105 84.2825 637.078 84.2825C638.387 84.2825 639.52 84.6145 640.477 85.2786C642.42 86.636 643.392 88.97 643.392 92.2805C643.392 96.4114 642.103 98.9456 639.524 99.8831C638.812 100.147 637.996 100.279 637.078 100.279C636.17 100.279 635.354 100.147 634.632 99.8831C633.909 99.6194 633.309 99.2532 632.83 98.7844C632.352 98.3157 631.951 97.7395 631.629 97.0559C631.033 95.7864 630.735 94.1897 630.735 92.2659ZM645.237 96.8948L647.405 95.5764C647.747 96.0647 648.064 96.4553 648.357 96.7483C649.051 97.4319 649.925 97.7737 650.979 97.7737C651.829 97.7737 652.435 97.5979 652.796 97.2463C653.128 96.9241 653.294 96.4358 653.294 95.7815C653.294 95.0393 653.055 94.4827 652.576 94.1116C652.146 93.7893 651.722 93.5696 651.302 93.4524L649.925 93.0569C648.333 92.6077 647.186 92.0022 646.482 91.2405C645.77 90.469 645.413 89.4485 645.413 88.179C645.413 87.095 645.857 86.1868 646.746 85.4543C647.684 84.6731 649.026 84.2825 650.774 84.2825C652.347 84.2825 653.699 84.8196 654.832 85.8938C655.32 86.3528 655.628 86.7385 655.755 87.051L653.938 88.4866C653.255 87.6565 652.571 87.1438 651.888 86.9485C651.536 86.8411 651.072 86.7874 650.496 86.7874C649.93 86.7874 649.441 86.9338 649.031 87.2268C648.631 87.5198 648.431 87.9495 648.431 88.5159C648.431 89.1702 648.719 89.678 649.295 90.0393C649.803 90.3616 650.315 90.6008 650.833 90.7571L652.151 91.1233C654.222 91.7092 655.506 92.7004 656.004 94.0969C656.209 94.6633 656.312 95.3372 656.312 96.1184C656.312 96.8899 656.067 97.5979 655.579 98.2424C655.101 98.887 654.466 99.385 653.675 99.7366C652.884 100.088 652.083 100.264 651.272 100.264C650.472 100.264 649.808 100.215 649.28 100.117C648.763 100.02 648.26 99.8489 647.771 99.6047C646.824 99.1262 645.979 98.2229 645.237 96.8948Z" fill="white"/>
<path d="M1260.61 83.6672C1260.61 81.7239 1258.98 80.7522 1255.72 80.7522H1253.3V87.4172H1255.72C1257.22 87.4172 1258.42 87.095 1259.29 86.4504C1260.17 85.7961 1260.61 84.8684 1260.61 83.6672ZM1249.8 100V77.8079H1257.38C1260.13 77.8079 1262.06 78.5989 1263.16 80.1809C1263.8 81.0989 1264.11 82.217 1264.11 83.5354C1264.11 85.8792 1263.4 87.6956 1261.97 88.9846C1260.93 89.9124 1259.55 90.3762 1257.84 90.3762H1253.3V100H1249.8ZM1266.34 100V84.5461H1269.47V86.6702C1269.51 86.6213 1269.6 86.4944 1269.74 86.2893L1270.09 85.762C1270.81 84.7756 1272 84.2825 1273.66 84.2825C1273.84 84.2825 1274.02 84.2971 1274.19 84.3264V86.9485C1272.41 86.9778 1271.13 87.4709 1270.35 88.428C1270 88.8577 1269.71 89.4094 1269.47 90.0833V100H1266.34ZM1277.96 90.4934C1277.9 91.011 1277.87 91.5676 1277.87 92.1633C1277.87 92.759 1277.9 93.2961 1277.96 93.7747C1278.01 94.2532 1278.12 94.7317 1278.26 95.2102C1278.42 95.6887 1278.62 96.1038 1278.85 96.4553C1279.38 97.2366 1280.12 97.6272 1281.08 97.6272C1283.2 97.6272 1284.25 95.845 1284.25 92.2805C1284.25 90.1907 1283.94 88.7405 1283.32 87.9299C1282.81 87.2659 1282.06 86.9338 1281.08 86.9338C1279.27 86.9338 1278.23 88.1204 1277.96 90.4934ZM1274.73 92.2659C1274.73 89.8245 1275.29 87.886 1276.42 86.4504C1277.55 85.0051 1279.1 84.2825 1281.08 84.2825C1282.38 84.2825 1283.52 84.6145 1284.47 85.2786C1286.42 86.636 1287.39 88.97 1287.39 92.2805C1287.39 96.4114 1286.1 98.9456 1283.52 99.8831C1282.81 100.147 1281.99 100.279 1281.08 100.279C1280.17 100.279 1279.35 100.147 1278.63 99.8831C1277.91 99.6194 1277.31 99.2532 1276.83 98.7844C1276.35 98.3157 1275.95 97.7395 1275.63 97.0559C1275.03 95.7864 1274.73 94.1897 1274.73 92.2659ZM1293 86.1868C1294.27 84.9172 1295.68 84.2825 1297.23 84.2825C1298.15 84.2825 1298.96 84.4631 1299.67 84.8245C1300.37 85.1858 1300.89 85.7327 1301.22 86.4651C1302.67 85.01 1304.12 84.2825 1305.55 84.2825C1306.79 84.2825 1307.86 84.6047 1308.76 85.2493C1309.73 85.9426 1310.21 86.9973 1310.21 88.4133V100H1307.08V89.2336C1307.08 88.5403 1306.82 87.9836 1306.32 87.5637C1305.81 87.1438 1305.25 86.9338 1304.65 86.9338C1304.05 86.9338 1303.46 87.1096 1302.89 87.4612C1302.31 87.803 1301.88 88.1448 1301.6 88.4866V100H1298.46V89.2336C1298.46 88.5305 1298.25 87.9739 1297.82 87.5637C1297.4 87.1438 1296.89 86.9338 1296.3 86.9338C1295.71 86.9338 1295.08 87.1145 1294.41 87.4758C1293.73 87.8274 1293.26 88.1643 1293 88.4866V100H1289.87V84.5461H1293V86.1868ZM1315.72 90.4934C1315.66 91.011 1315.63 91.5676 1315.63 92.1633C1315.63 92.759 1315.66 93.2961 1315.72 93.7747C1315.78 94.2532 1315.88 94.7317 1316.03 95.2102C1316.18 95.6887 1316.38 96.1038 1316.61 96.4553C1317.14 97.2366 1317.88 97.6272 1318.84 97.6272C1320.96 97.6272 1322.02 95.845 1322.02 92.2805C1322.02 90.1907 1321.71 88.7405 1321.08 87.9299C1320.57 87.2659 1319.83 86.9338 1318.84 86.9338C1317.03 86.9338 1315.99 88.1204 1315.72 90.4934ZM1312.5 92.2659C1312.5 89.8245 1313.06 87.886 1314.18 86.4504C1315.31 85.0051 1316.87 84.2825 1318.84 84.2825C1320.15 84.2825 1321.28 84.6145 1322.24 85.2786C1324.18 86.636 1325.15 88.97 1325.15 92.2805C1325.15 96.4114 1323.86 98.9456 1321.29 99.8831C1320.57 100.147 1319.76 100.279 1318.84 100.279C1317.93 100.279 1317.12 100.147 1316.39 99.8831C1315.67 99.6194 1315.07 99.2532 1314.59 98.7844C1314.11 98.3157 1313.71 97.7395 1313.39 97.0559C1312.79 95.7864 1312.5 94.1897 1312.5 92.2659Z" fill="white"/>
<path d="M1375.16 91.6506C1375 90.7327 1374.92 89.8049 1374.92 88.8674C1374.92 87.9299 1375 87.0071 1375.14 86.0989C1375.29 85.1907 1375.5 84.3069 1375.79 83.4475C1376.08 82.5784 1376.46 81.7825 1376.92 81.0598C1377.38 80.3274 1377.92 79.6877 1378.51 79.1409C1379.78 77.9788 1381.36 77.3977 1383.24 77.3977C1385.64 77.3977 1387.53 78.594 1388.91 80.9866C1389.59 82.1487 1390.04 83.345 1390.27 84.5754V84.5901L1387.23 85.4104C1387.07 84.3655 1386.89 83.6038 1386.67 83.1252C1386.46 82.637 1386.24 82.2317 1386.03 81.9094C1385.81 81.5774 1385.58 81.304 1385.32 81.0891C1384.72 80.5911 1384.03 80.342 1383.26 80.342C1382.5 80.342 1381.84 80.5178 1381.29 80.8694C1380.75 81.2112 1380.3 81.6653 1379.95 82.2317C1379.6 82.7883 1379.3 83.4426 1379.07 84.1946C1378.64 85.5813 1378.42 87.1438 1378.42 88.8821C1378.42 93.4915 1379.52 96.2454 1381.71 97.1438C1382.17 97.3391 1382.67 97.4368 1383.2 97.4368C1383.73 97.4368 1384.2 97.3684 1384.61 97.2317C1385.03 97.095 1385.38 96.9192 1385.66 96.7043C1385.94 96.4797 1386.19 96.2161 1386.41 95.9133C1386.63 95.6106 1386.81 95.3079 1386.93 95.0051C1387.07 94.6926 1387.18 94.3752 1387.26 94.053C1387.4 93.4866 1387.48 92.9592 1387.48 92.4709L1390.74 92.925C1390.3 94.8 1389.54 96.426 1388.44 97.803C1387.06 99.5217 1385.31 100.381 1383.21 100.381C1380.64 100.381 1378.56 99.1555 1376.99 96.7043C1376.1 95.3274 1375.49 93.6428 1375.16 91.6506ZM1395.43 90.4934C1395.37 91.011 1395.34 91.5676 1395.34 92.1633C1395.34 92.759 1395.37 93.2961 1395.43 93.7747C1395.49 94.2532 1395.59 94.7317 1395.74 95.2102C1395.89 95.6887 1396.09 96.1038 1396.32 96.4553C1396.85 97.2366 1397.59 97.6272 1398.55 97.6272C1400.67 97.6272 1401.73 95.845 1401.73 92.2805C1401.73 90.1907 1401.42 88.7405 1400.79 87.9299C1400.28 87.2659 1399.54 86.9338 1398.55 86.9338C1396.74 86.9338 1395.7 88.1204 1395.43 90.4934ZM1392.21 92.2659C1392.21 89.8245 1392.77 87.886 1393.89 86.4504C1395.03 85.0051 1396.58 84.2825 1398.55 84.2825C1399.86 84.2825 1400.99 84.6145 1401.95 85.2786C1403.89 86.636 1404.86 88.97 1404.86 92.2805C1404.86 96.4114 1403.58 98.9456 1401 99.8831C1400.28 100.147 1399.47 100.279 1398.55 100.279C1397.64 100.279 1396.83 100.147 1396.1 99.8831C1395.38 99.6194 1394.78 99.2532 1394.3 98.7844C1393.82 98.3157 1393.42 97.7395 1393.1 97.0559C1392.51 95.7864 1392.21 94.1897 1392.21 92.2659ZM1418.79 88.4133V100H1415.66V89.2336C1415.66 88.5305 1415.45 87.9739 1415.02 87.5637C1414.6 87.1438 1414.09 86.9338 1413.51 86.9338C1412.92 86.9338 1412.34 87.1096 1411.76 87.4612C1411.19 87.803 1410.76 88.1448 1410.47 88.4866V100H1407.34V84.5461H1410.47V86.1868C1411.04 85.6204 1411.63 85.1614 1412.25 84.8098C1412.87 84.4583 1413.6 84.2825 1414.43 84.2825C1415.7 84.2825 1416.74 84.6292 1417.56 85.3225C1418.38 86.0061 1418.79 87.0364 1418.79 88.4133ZM1420.45 87.1975V84.5461H1422.75V78.9065H1425.88V84.5461H1429.12V87.1975H1425.88V95.4885C1425.88 96.3186 1426.03 96.8899 1426.32 97.2024C1426.63 97.5051 1427.13 97.6565 1427.83 97.6565C1428.12 97.6565 1428.4 97.637 1428.68 97.5979C1428.98 97.5588 1429.12 97.5344 1429.12 97.5247V99.7366C1428.59 99.9807 1428.18 100.137 1427.89 100.205C1427.61 100.274 1427.26 100.308 1426.84 100.308C1426.43 100.308 1426.12 100.303 1425.91 100.293C1425.72 100.283 1425.47 100.249 1425.18 100.191C1424.9 100.132 1424.65 100.054 1424.43 99.9563C1424.23 99.8489 1424.01 99.6975 1423.79 99.5022C1423.57 99.3069 1423.38 99.0725 1423.23 98.7991C1422.91 98.1741 1422.75 97.3635 1422.75 96.3674V87.1975H1420.45ZM1433.36 96.0159C1433.36 96.592 1433.5 97.012 1433.78 97.2756C1434.06 97.5295 1434.42 97.6565 1434.83 97.6565C1435.25 97.6565 1435.57 97.6321 1435.77 97.5833C1435.99 97.5344 1436.2 97.4612 1436.4 97.3635L1436.94 97.0852C1437.1 96.9973 1437.28 96.8752 1437.47 96.719L1437.9 96.3821C1437.97 96.3137 1438.1 96.2014 1438.28 96.0452L1438.54 95.7961V92.178C1436.35 92.6858 1434.92 93.2327 1434.25 93.8186C1433.65 94.3459 1433.36 95.0784 1433.36 96.0159ZM1438.98 100C1438.69 99.8245 1438.54 99.3704 1438.54 98.6379L1438.26 98.9602C1437.42 99.8586 1436.22 100.308 1434.66 100.308C1432.76 100.308 1431.47 99.6389 1430.76 98.301C1430.4 97.637 1430.22 96.8704 1430.22 96.0012C1430.22 95.1321 1430.37 94.3606 1430.67 93.6868C1430.99 93.0032 1431.49 92.4026 1432.18 91.885C1433.44 90.9475 1435.56 90.1809 1438.54 89.5852C1438.54 88.8918 1438.52 88.467 1438.47 88.3108C1438.43 88.1545 1438.38 88.0081 1438.32 87.8713C1438.27 87.7346 1438.21 87.6321 1438.13 87.5637C1438.05 87.4856 1437.96 87.4026 1437.84 87.3147C1437.72 87.2268 1437.58 87.1633 1437.43 87.1243C1437.05 87.0266 1436.62 86.9778 1436.15 86.9778C1435.69 86.9778 1435.26 87.051 1434.85 87.1975C1434.45 87.3342 1434.13 87.4905 1433.88 87.6663C1433.65 87.842 1433.43 88.0471 1433.24 88.2815C1432.98 88.594 1432.8 88.8674 1432.7 89.1018L1430.65 87.842C1431.08 86.9534 1431.45 86.3625 1431.76 86.0696C1432.07 85.7668 1432.38 85.5081 1432.68 85.2932C1432.98 85.0784 1433.31 84.9075 1433.65 84.7805C1434.47 84.4778 1435.3 84.3264 1436.15 84.3264C1437 84.3264 1437.68 84.3752 1438.17 84.4729C1438.68 84.5608 1439.16 84.7268 1439.61 84.9709C1440.07 85.2053 1440.45 85.5227 1440.74 85.9231C1441.36 86.7922 1441.68 88.0618 1441.68 89.7317V97.8176C1441.68 98.0911 1441.72 98.4768 1441.82 98.9749C1441.93 99.4729 1442.03 99.8147 1442.12 100H1438.98ZM1443.83 92.3831C1443.83 89.3167 1444.5 87.134 1445.84 85.8352C1446.89 84.8 1448.37 84.2825 1450.26 84.2825C1452.16 84.2825 1453.65 85.0833 1454.73 86.6848C1455.08 87.2024 1455.32 87.6858 1455.46 88.135L1452.81 89.3069C1452.73 88.5061 1452.4 87.8713 1451.83 87.4026C1451.44 87.0901 1450.95 86.9338 1450.38 86.9338C1448.1 86.9338 1446.96 88.7063 1446.96 92.2512C1446.96 93.9993 1447.26 95.3323 1447.86 96.2502C1448.45 97.1584 1449.32 97.6125 1450.46 97.6125C1451.27 97.6125 1451.92 97.3196 1452.41 96.7336C1452.84 96.2258 1453.16 95.6838 1453.35 95.1077L1455.75 96.1624C1455.53 97.0315 1455.05 97.8567 1454.32 98.6379C1453.29 99.7219 1451.98 100.264 1450.38 100.264C1446.01 100.264 1443.83 97.637 1443.83 92.3831ZM1456.95 87.1975V84.5461H1459.25V78.9065H1462.39V84.5461H1465.63V87.1975H1462.39V95.4885C1462.39 96.3186 1462.54 96.8899 1462.83 97.2024C1463.13 97.5051 1463.63 97.6565 1464.34 97.6565C1464.62 97.6565 1464.9 97.637 1465.19 97.5979C1465.48 97.5588 1465.63 97.5344 1465.63 97.5247V99.7366C1465.1 99.9807 1464.69 100.137 1464.4 100.205C1464.11 100.274 1463.76 100.308 1463.34 100.308C1462.93 100.308 1462.62 100.303 1462.42 100.293C1462.22 100.283 1461.98 100.249 1461.69 100.191C1461.4 100.132 1461.15 100.054 1460.94 99.9563C1460.73 99.8489 1460.52 99.6975 1460.29 99.5022C1460.07 99.3069 1459.88 99.0725 1459.74 98.7991C1459.42 98.1741 1459.25 97.3635 1459.25 96.3674V87.1975H1456.95ZM1469.79 90.4934C1469.73 91.011 1469.7 91.5676 1469.7 92.1633C1469.7 92.759 1469.73 93.2961 1469.79 93.7747C1469.84 94.2532 1469.95 94.7317 1470.09 95.2102C1470.25 95.6887 1470.45 96.1038 1470.68 96.4553C1471.21 97.2366 1471.95 97.6272 1472.91 97.6272C1475.03 97.6272 1476.08 95.845 1476.08 92.2805C1476.08 90.1907 1475.77 88.7405 1475.15 87.9299C1474.64 87.2659 1473.89 86.9338 1472.91 86.9338C1471.1 86.9338 1470.06 88.1204 1469.79 90.4934ZM1466.56 92.2659C1466.56 89.8245 1467.12 87.886 1468.25 86.4504C1469.38 85.0051 1470.93 84.2825 1472.91 84.2825C1474.21 84.2825 1475.35 84.6145 1476.3 85.2786C1478.25 86.636 1479.22 88.97 1479.22 92.2805C1479.22 96.4114 1477.93 98.9456 1475.35 99.8831C1474.64 100.147 1473.82 100.279 1472.91 100.279C1472 100.279 1471.18 100.147 1470.46 99.8831C1469.74 99.6194 1469.14 99.2532 1468.66 98.7844C1468.18 98.3157 1467.78 97.7395 1467.46 97.0559C1466.86 95.7864 1466.56 94.1897 1466.56 92.2659Z" fill="white"/>
<path d="M706.802 100V77.8079H719.502V80.7522H710.303V86.8899H716.704V89.8489H710.303V96.8508H720.059V100H706.802ZM725.566 86.1868C726.836 84.9172 728.247 84.2825 729.8 84.2825C730.718 84.2825 731.528 84.4631 732.231 84.8245C732.935 85.1858 733.452 85.7327 733.784 86.4651C735.239 85.01 736.685 84.2825 738.12 84.2825C739.36 84.2825 740.43 84.6047 741.328 85.2493C742.295 85.9426 742.778 86.9973 742.778 88.4133V100H739.644V89.2336C739.644 88.5403 739.39 87.9836 738.882 87.5637C738.374 87.1438 737.817 86.9338 737.212 86.9338C736.616 86.9338 736.03 87.1096 735.454 87.4612C734.878 87.803 734.448 88.1448 734.165 88.4866V100H731.03V89.2336C731.03 88.5305 730.815 87.9739 730.386 87.5637C729.966 87.1438 729.458 86.9338 728.862 86.9338C728.276 86.9338 727.646 87.1145 726.973 87.4758C726.299 87.8274 725.83 88.1643 725.566 88.4866V100H722.432V84.5461H725.566V86.1868ZM749.062 96.1038C750.029 97.1096 751.084 97.6125 752.227 97.6125C753.418 97.6125 754.272 97.0999 754.79 96.0745C755.249 95.176 755.479 93.8284 755.479 92.0315C755.479 90.0491 755.156 88.677 754.512 87.9153C753.965 87.261 753.154 86.9338 752.08 86.9338C750.957 86.9338 750.02 87.4368 749.268 88.4426C749.141 88.6184 749.072 88.7112 749.062 88.7209V96.1038ZM749.062 85.7034C749.805 84.7561 750.889 84.2825 752.314 84.2825C754.775 84.2825 756.562 85.4202 757.676 87.6956C758.301 88.9651 758.613 90.3958 758.613 91.9875C758.613 95.7083 757.695 98.1545 755.859 99.3264C754.883 99.9514 753.633 100.264 752.109 100.264C751.367 100.264 750.718 100.117 750.161 99.8245C749.604 99.5217 749.238 99.2385 749.062 98.9749V106.006H745.928V84.5461H749.062V85.7034ZM760.898 100V84.5461H764.033V86.6702C764.072 86.6213 764.16 86.4944 764.297 86.2893L764.648 85.762C765.371 84.7756 766.562 84.2825 768.223 84.2825C768.398 84.2825 768.574 84.2971 768.75 84.3264V86.9485C766.973 86.9778 765.693 87.4709 764.912 88.428C764.561 88.8577 764.268 89.4094 764.033 90.0833V100H760.898ZM772.573 90.4495H777.993C777.993 89.6877 777.861 89.0286 777.598 88.4719C777.09 87.4465 776.387 86.9338 775.488 86.9338C774.951 86.9338 774.478 87.0559 774.067 87.3C773.667 87.5344 773.364 87.842 773.159 88.2229C772.769 88.9358 772.573 89.678 772.573 90.4495ZM770.112 97.012C769.81 96.3381 769.595 95.6497 769.468 94.9465C769.351 94.2336 769.292 93.3401 769.292 92.2659C769.292 91.1819 769.419 90.1321 769.673 89.1165C769.927 88.1008 770.254 87.2952 770.654 86.6995C771.055 86.094 771.538 85.6057 772.104 85.2346C773.071 84.5999 774.209 84.2825 775.518 84.2825C776.748 84.2825 777.822 84.6487 778.74 85.3811C780.459 86.7678 781.279 89.3411 781.201 93.1008H772.427C772.427 95.0735 772.949 96.4016 773.994 97.0852C774.531 97.4368 775.093 97.6125 775.679 97.6125C776.274 97.6125 776.768 97.5393 777.158 97.3928C777.549 97.2463 777.861 97.0803 778.096 96.8948C778.33 96.7092 778.545 96.4944 778.74 96.2502C779.004 95.9084 779.185 95.6155 779.282 95.3713L781.274 96.6604C780.552 97.9202 779.78 98.8186 778.96 99.3557C778.052 99.9612 777.051 100.264 775.957 100.264C774.873 100.264 773.945 100.122 773.174 99.8391C772.412 99.5559 771.787 99.1799 771.299 98.7112C770.82 98.2424 770.425 97.676 770.112 97.012ZM795.205 88.4133V100H792.07V89.2336C792.07 88.5305 791.855 87.9739 791.426 87.5637C791.006 87.1438 790.503 86.9338 789.917 86.9338C789.331 86.9338 788.75 87.1096 788.174 87.4612C787.598 87.803 787.168 88.1448 786.885 88.4866V100H783.75V84.5461H786.885V86.1868C787.451 85.6204 788.042 85.1614 788.657 84.8098C789.282 84.4583 790.01 84.2825 790.84 84.2825C792.109 84.2825 793.154 84.6292 793.975 85.3225C794.795 86.0061 795.205 87.0364 795.205 88.4133ZM807.026 88.4426C806.06 87.4368 805.005 86.9338 803.862 86.9338C802.671 86.9338 801.816 87.4465 801.299 88.4719C800.84 89.3704 800.61 90.718 800.61 92.5149C800.61 94.4973 800.933 95.8694 801.577 96.6311C802.124 97.2854 802.935 97.6125 804.009 97.6125C805.142 97.6125 806.079 97.1096 806.821 96.1038C806.948 95.928 807.017 95.8352 807.026 95.8254V88.4426ZM810.161 97.9055C810.161 98.5891 810.298 99.2874 810.571 100H807.261C807.231 99.9514 807.202 99.8831 807.173 99.7952L807.026 98.843C806.284 99.7903 805.2 100.264 803.774 100.264C801.313 100.264 799.526 99.1262 798.413 96.8508C797.788 95.5813 797.476 94.1506 797.476 92.5588C797.476 88.8381 798.394 86.3918 800.229 85.22C801.206 84.595 802.456 84.2825 803.979 84.2825C804.731 84.2825 805.381 84.4338 805.928 84.7366C806.484 85.0295 806.851 85.3079 807.026 85.5715V77.8079H810.161V97.9055ZM812.725 100V84.5461H815.859V100H812.725ZM812.505 83.1985V79.6389H816.064V83.1985H812.505ZM822.275 86.1868C823.545 84.9172 824.956 84.2825 826.509 84.2825C827.427 84.2825 828.237 84.4631 828.94 84.8245C829.644 85.1858 830.161 85.7327 830.493 86.4651C831.948 85.01 833.394 84.2825 834.829 84.2825C836.069 84.2825 837.139 84.6047 838.037 85.2493C839.004 85.9426 839.487 86.9973 839.487 88.4133V100H836.353V89.2336C836.353 88.5403 836.099 87.9836 835.591 87.5637C835.083 87.1438 834.526 86.9338 833.921 86.9338C833.325 86.9338 832.739 87.1096 832.163 87.4612C831.587 87.803 831.157 88.1448 830.874 88.4866V100H827.739V89.2336C827.739 88.5305 827.524 87.9739 827.095 87.5637C826.675 87.1438 826.167 86.9338 825.571 86.9338C824.985 86.9338 824.355 87.1145 823.682 87.4758C823.008 87.8274 822.539 88.1643 822.275 88.4866V100H819.141V84.5461H822.275V86.1868ZM842.461 100V84.5461H845.596V100H842.461ZM842.241 83.1985V79.6389H845.801V83.1985H842.241ZM851.411 90.4495H856.831C856.831 89.6877 856.699 89.0286 856.436 88.4719C855.928 87.4465 855.225 86.9338 854.326 86.9338C853.789 86.9338 853.315 87.0559 852.905 87.3C852.505 87.5344 852.202 87.842 851.997 88.2229C851.606 88.9358 851.411 89.678 851.411 90.4495ZM848.95 97.012C848.647 96.3381 848.433 95.6497 848.306 94.9465C848.188 94.2336 848.13 93.3401 848.13 92.2659C848.13 91.1819 848.257 90.1321 848.511 89.1165C848.765 88.1008 849.092 87.2952 849.492 86.6995C849.893 86.094 850.376 85.6057 850.942 85.2346C851.909 84.5999 853.047 84.2825 854.355 84.2825C855.586 84.2825 856.66 84.6487 857.578 85.3811C859.297 86.7678 860.117 89.3411 860.039 93.1008H851.265C851.265 95.0735 851.787 96.4016 852.832 97.0852C853.369 97.4368 853.931 97.6125 854.517 97.6125C855.112 97.6125 855.605 97.5393 855.996 97.3928C856.387 97.2463 856.699 97.0803 856.934 96.8948C857.168 96.7092 857.383 96.4944 857.578 96.2502C857.842 95.9084 858.022 95.6155 858.12 95.3713L860.112 96.6604C859.39 97.9202 858.618 98.8186 857.798 99.3557C856.89 99.9612 855.889 100.264 854.795 100.264C853.711 100.264 852.783 100.122 852.012 99.8391C851.25 99.5559 850.625 99.1799 850.137 98.7112C849.658 98.2424 849.263 97.676 848.95 97.012ZM874.043 88.4133V100H870.908V89.2336C870.908 88.5305 870.693 87.9739 870.264 87.5637C869.844 87.1438 869.341 86.9338 868.755 86.9338C868.169 86.9338 867.588 87.1096 867.012 87.4612C866.436 87.803 866.006 88.1448 865.723 88.4866V100H862.588V84.5461H865.723V86.1868C866.289 85.6204 866.88 85.1614 867.495 84.8098C868.12 84.4583 868.848 84.2825 869.678 84.2825C870.947 84.2825 871.992 84.6292 872.812 85.3225C873.633 86.0061 874.043 87.0364 874.043 88.4133ZM875.698 87.1975V84.5461H877.998V78.9065H881.133V84.5461H884.37V87.1975H881.133V95.4885C881.133 96.3186 881.279 96.8899 881.572 97.2024C881.875 97.5051 882.378 97.6565 883.081 97.6565C883.364 97.6565 883.647 97.637 883.931 97.5979C884.224 97.5588 884.37 97.5344 884.37 97.5247V99.7366C883.843 99.9807 883.433 100.137 883.14 100.205C882.856 100.274 882.505 100.308 882.085 100.308C881.675 100.308 881.367 100.303 881.162 100.293C880.967 100.283 880.723 100.249 880.43 100.191C880.146 100.132 879.897 100.054 879.683 99.9563C879.478 99.8489 879.263 99.6975 879.038 99.5022C878.813 99.3069 878.628 99.0725 878.481 98.7991C878.159 98.1741 877.998 97.3635 877.998 96.3674V87.1975H875.698ZM888.53 90.4934C888.472 91.011 888.442 91.5676 888.442 92.1633C888.442 92.759 888.472 93.2961 888.53 93.7747C888.589 94.2532 888.691 94.7317 888.838 95.2102C888.994 95.6887 889.189 96.1038 889.424 96.4553C889.951 97.2366 890.693 97.6272 891.65 97.6272C893.77 97.6272 894.829 95.845 894.829 92.2805C894.829 90.1907 894.517 88.7405 893.892 87.9299C893.384 87.2659 892.637 86.9338 891.65 86.9338C889.844 86.9338 888.804 88.1204 888.53 90.4934ZM885.308 92.2659C885.308 89.8245 885.869 87.886 886.992 86.4504C888.125 85.0051 889.678 84.2825 891.65 84.2825C892.959 84.2825 894.092 84.6145 895.049 85.2786C896.992 86.636 897.964 88.97 897.964 92.2805C897.964 96.4114 896.675 98.9456 894.097 99.8831C893.384 100.147 892.568 100.279 891.65 100.279C890.742 100.279 889.927 100.147 889.204 99.8831C888.481 99.6194 887.881 99.2532 887.402 98.7844C886.924 98.3157 886.523 97.7395 886.201 97.0559C885.605 95.7864 885.308 94.1897 885.308 92.2659ZM916.743 88.4426C915.776 87.4368 914.722 86.9338 913.579 86.9338C912.388 86.9338 911.533 87.4465 911.016 88.4719C910.557 89.3704 910.327 90.718 910.327 92.5149C910.327 94.4973 910.649 95.8694 911.294 96.6311C911.841 97.2854 912.651 97.6125 913.726 97.6125C914.858 97.6125 915.796 97.1096 916.538 96.1038C916.665 95.928 916.733 95.8352 916.743 95.8254V88.4426ZM919.878 97.9055C919.878 98.5891 920.015 99.2874 920.288 100H916.978C916.948 99.9514 916.919 99.8831 916.89 99.7952L916.743 98.843C916.001 99.7903 914.917 100.264 913.491 100.264C911.03 100.264 909.243 99.1262 908.13 96.8508C907.505 95.5813 907.192 94.1506 907.192 92.5588C907.192 88.8381 908.11 86.3918 909.946 85.22C910.923 84.595 912.173 84.2825 913.696 84.2825C914.448 84.2825 915.098 84.4338 915.645 84.7366C916.201 85.0295 916.567 85.3079 916.743 85.5715V77.8079H919.878V97.9055ZM925.034 90.4495H930.454C930.454 89.6877 930.322 89.0286 930.059 88.4719C929.551 87.4465 928.848 86.9338 927.949 86.9338C927.412 86.9338 926.938 87.0559 926.528 87.3C926.128 87.5344 925.825 87.842 925.62 88.2229C925.229 88.9358 925.034 89.678 925.034 90.4495ZM922.573 97.012C922.271 96.3381 922.056 95.6497 921.929 94.9465C921.812 94.2336 921.753 93.3401 921.753 92.2659C921.753 91.1819 921.88 90.1321 922.134 89.1165C922.388 88.1008 922.715 87.2952 923.115 86.6995C923.516 86.094 923.999 85.6057 924.565 85.2346C925.532 84.5999 926.67 84.2825 927.979 84.2825C929.209 84.2825 930.283 84.6487 931.201 85.3811C932.92 86.7678 933.74 89.3411 933.662 93.1008H924.888C924.888 95.0735 925.41 96.4016 926.455 97.0852C926.992 97.4368 927.554 97.6125 928.14 97.6125C928.735 97.6125 929.229 97.5393 929.619 97.3928C930.01 97.2463 930.322 97.0803 930.557 96.8948C930.791 96.7092 931.006 96.4944 931.201 96.2502C931.465 95.9084 931.646 95.6155 931.743 95.3713L933.735 96.6604C933.013 97.9202 932.241 98.8186 931.421 99.3557C930.513 99.9612 929.512 100.264 928.418 100.264C927.334 100.264 926.406 100.122 925.635 99.8391C924.873 99.5559 924.248 99.1799 923.76 98.7112C923.281 98.2424 922.886 97.676 922.573 97.012ZM935.581 96.8948L937.749 95.5764C938.091 96.0647 938.408 96.4553 938.701 96.7483C939.395 97.4319 940.269 97.7737 941.323 97.7737C942.173 97.7737 942.778 97.5979 943.14 97.2463C943.472 96.9241 943.638 96.4358 943.638 95.7815C943.638 95.0393 943.398 94.4827 942.92 94.1116C942.49 93.7893 942.065 93.5696 941.646 93.4524L940.269 93.0569C938.677 92.6077 937.529 92.0022 936.826 91.2405C936.113 90.469 935.757 89.4485 935.757 88.179C935.757 87.095 936.201 86.1868 937.09 85.4543C938.027 84.6731 939.37 84.2825 941.118 84.2825C942.69 84.2825 944.043 84.8196 945.176 85.8938C945.664 86.3528 945.972 86.7385 946.099 87.051L944.282 88.4866C943.599 87.6565 942.915 87.1438 942.231 86.9485C941.88 86.8411 941.416 86.7874 940.84 86.7874C940.273 86.7874 939.785 86.9338 939.375 87.2268C938.975 87.5198 938.774 87.9495 938.774 88.5159C938.774 89.1702 939.062 89.678 939.639 90.0393C940.146 90.3616 940.659 90.6008 941.177 90.7571L942.495 91.1233C944.565 91.7092 945.85 92.7004 946.348 94.0969C946.553 94.6633 946.655 95.3372 946.655 96.1184C946.655 96.8899 946.411 97.5979 945.923 98.2424C945.444 98.887 944.81 99.385 944.019 99.7366C943.228 100.088 942.427 100.264 941.616 100.264C940.815 100.264 940.151 100.215 939.624 100.117C939.106 100.02 938.604 99.8489 938.115 99.6047C937.168 99.1262 936.323 98.2229 935.581 96.8948ZM947.886 87.1975V84.5461H950.186V78.9065H953.32V84.5461H956.558V87.1975H953.32V95.4885C953.32 96.3186 953.467 96.8899 953.76 97.2024C954.062 97.5051 954.565 97.6565 955.269 97.6565C955.552 97.6565 955.835 97.637 956.118 97.5979C956.411 97.5588 956.558 97.5344 956.558 97.5247V99.7366C956.03 99.9807 955.62 100.137 955.327 100.205C955.044 100.274 954.692 100.308 954.272 100.308C953.862 100.308 953.555 100.303 953.35 100.293C953.154 100.283 952.91 100.249 952.617 100.191C952.334 100.132 952.085 100.054 951.87 99.9563C951.665 99.8489 951.45 99.6975 951.226 99.5022C951.001 99.3069 950.815 99.0725 950.669 98.7991C950.347 98.1741 950.186 97.3635 950.186 96.3674V87.1975H947.886ZM960.791 96.0159C960.791 96.592 960.933 97.012 961.216 97.2756C961.499 97.5295 961.851 97.6565 962.271 97.6565C962.69 97.6565 963.003 97.6321 963.208 97.5833C963.423 97.5344 963.633 97.4612 963.838 97.3635L964.38 97.0852C964.536 96.9973 964.712 96.8752 964.907 96.719L965.332 96.3821C965.41 96.3137 965.537 96.2014 965.713 96.0452L965.977 95.7961V92.178C963.789 92.6858 962.358 93.2327 961.685 93.8186C961.089 94.3459 960.791 95.0784 960.791 96.0159ZM966.416 100C966.123 99.8245 965.977 99.3704 965.977 98.6379L965.698 98.9602C964.858 99.8586 963.657 100.308 962.095 100.308C960.2 100.308 958.901 99.6389 958.198 98.301C957.837 97.637 957.656 96.8704 957.656 96.0012C957.656 95.1321 957.808 94.3606 958.11 93.6868C958.423 93.0032 958.926 92.4026 959.619 91.885C960.879 90.9475 962.998 90.1809 965.977 89.5852C965.977 88.8918 965.952 88.467 965.903 88.3108C965.864 88.1545 965.815 88.0081 965.757 87.8713C965.708 87.7346 965.645 87.6321 965.566 87.5637C965.488 87.4856 965.391 87.4026 965.273 87.3147C965.156 87.2268 965.02 87.1633 964.863 87.1243C964.482 87.0266 964.058 86.9778 963.589 86.9778C963.13 86.9778 962.695 87.051 962.285 87.1975C961.885 87.3342 961.562 87.4905 961.318 87.6663C961.084 87.842 960.869 88.0471 960.674 88.2815C960.42 88.594 960.239 88.8674 960.132 89.1018L958.081 87.842C958.511 86.9534 958.882 86.3625 959.194 86.0696C959.507 85.7668 959.814 85.5081 960.117 85.2932C960.42 85.0784 960.742 84.9075 961.084 84.7805C961.904 84.4778 962.739 84.3264 963.589 84.3264C964.438 84.3264 965.112 84.3752 965.61 84.4729C966.118 84.5608 966.597 84.7268 967.046 84.9709C967.505 85.2053 967.881 85.5227 968.174 85.9231C968.799 86.7922 969.111 88.0618 969.111 89.7317V97.8176C969.111 98.0911 969.16 98.4768 969.258 98.9749C969.365 99.4729 969.463 99.8147 969.551 100H966.416ZM971.265 92.3831C971.265 89.3167 971.934 87.134 973.271 85.8352C974.326 84.8 975.801 84.2825 977.695 84.2825C979.6 84.2825 981.089 85.0833 982.163 86.6848C982.515 87.2024 982.759 87.6858 982.896 88.135L980.244 89.3069C980.166 88.5061 979.839 87.8713 979.263 87.4026C978.872 87.0901 978.389 86.9338 977.812 86.9338C975.537 86.9338 974.399 88.7063 974.399 92.2512C974.399 93.9993 974.697 95.3323 975.293 96.2502C975.889 97.1584 976.758 97.6125 977.9 97.6125C978.701 97.6125 979.351 97.3196 979.849 96.7336C980.278 96.2258 980.591 95.6838 980.786 95.1077L983.188 96.1624C982.964 97.0315 982.485 97.8567 981.753 98.6379C980.728 99.7219 979.414 100.264 977.812 100.264C973.447 100.264 971.265 97.637 971.265 92.3831ZM988.301 96.0159C988.301 96.592 988.442 97.012 988.726 97.2756C989.009 97.5295 989.36 97.6565 989.78 97.6565C990.2 97.6565 990.513 97.6321 990.718 97.5833C990.933 97.5344 991.143 97.4612 991.348 97.3635L991.89 97.0852C992.046 96.9973 992.222 96.8752 992.417 96.719L992.842 96.3821C992.92 96.3137 993.047 96.2014 993.223 96.0452L993.486 95.7961V92.178C991.299 92.6858 989.868 93.2327 989.194 93.8186C988.599 94.3459 988.301 95.0784 988.301 96.0159ZM993.926 100C993.633 99.8245 993.486 99.3704 993.486 98.6379L993.208 98.9602C992.368 99.8586 991.167 100.308 989.604 100.308C987.71 100.308 986.411 99.6389 985.708 98.301C985.347 97.637 985.166 96.8704 985.166 96.0012C985.166 95.1321 985.317 94.3606 985.62 93.6868C985.933 93.0032 986.436 92.4026 987.129 91.885C988.389 90.9475 990.508 90.1809 993.486 89.5852C993.486 88.8918 993.462 88.467 993.413 88.3108C993.374 88.1545 993.325 88.0081 993.267 87.8713C993.218 87.7346 993.154 87.6321 993.076 87.5637C992.998 87.4856 992.9 87.4026 992.783 87.3147C992.666 87.2268 992.529 87.1633 992.373 87.1243C991.992 87.0266 991.567 86.9778 991.099 86.9778C990.64 86.9778 990.205 87.051 989.795 87.1975C989.395 87.3342 989.072 87.4905 988.828 87.6663C988.594 87.842 988.379 88.0471 988.184 88.2815C987.93 88.594 987.749 88.8674 987.642 89.1018L985.591 87.842C986.021 86.9534 986.392 86.3625 986.704 86.0696C987.017 85.7668 987.324 85.5081 987.627 85.2932C987.93 85.0784 988.252 84.9075 988.594 84.7805C989.414 84.4778 990.249 84.3264 991.099 84.3264C991.948 84.3264 992.622 84.3752 993.12 84.4729C993.628 84.5608 994.106 84.7268 994.556 84.9709C995.015 85.2053 995.391 85.5227 995.684 85.9231C996.309 86.7922 996.621 88.0618 996.621 89.7317V97.8176C996.621 98.0911 996.67 98.4768 996.768 98.9749C996.875 99.4729 996.973 99.8147 997.061 100H993.926ZM1008.33 88.4426C1007.36 87.4368 1006.3 86.9338 1005.16 86.9338C1003.97 86.9338 1003.12 87.4465 1002.6 88.4719C1002.14 89.3704 1001.91 90.718 1001.91 92.5149C1001.91 94.4973 1002.23 95.8694 1002.88 96.6311C1003.42 97.2854 1004.23 97.6125 1005.31 97.6125C1006.44 97.6125 1007.38 97.1096 1008.12 96.1038C1008.25 95.928 1008.32 95.8352 1008.33 95.8254V88.4426ZM1011.46 97.9055C1011.46 98.5891 1011.6 99.2874 1011.87 100H1008.56C1008.53 99.9514 1008.5 99.8831 1008.47 99.7952L1008.33 98.843C1007.58 99.7903 1006.5 100.264 1005.07 100.264C1002.61 100.264 1000.83 99.1262 999.712 96.8508C999.087 95.5813 998.774 94.1506 998.774 92.5588C998.774 88.8381 999.692 86.3918 1001.53 85.22C1002.5 84.595 1003.75 84.2825 1005.28 84.2825C1006.03 84.2825 1006.68 84.4338 1007.23 84.7366C1007.78 85.0295 1008.15 85.3079 1008.33 85.5715V77.8079H1011.46V97.9055ZM1016.56 90.4934C1016.5 91.011 1016.47 91.5676 1016.47 92.1633C1016.47 92.759 1016.5 93.2961 1016.56 93.7747C1016.62 94.2532 1016.72 94.7317 1016.87 95.2102C1017.02 95.6887 1017.22 96.1038 1017.45 96.4553C1017.98 97.2366 1018.72 97.6272 1019.68 97.6272C1021.8 97.6272 1022.86 95.845 1022.86 92.2805C1022.86 90.1907 1022.54 88.7405 1021.92 87.9299C1021.41 87.2659 1020.66 86.9338 1019.68 86.9338C1017.87 86.9338 1016.83 88.1204 1016.56 90.4934ZM1013.33 92.2659C1013.33 89.8245 1013.9 87.886 1015.02 86.4504C1016.15 85.0051 1017.71 84.2825 1019.68 84.2825C1020.99 84.2825 1022.12 84.6145 1023.08 85.2786C1025.02 86.636 1025.99 88.97 1025.99 92.2805C1025.99 96.4114 1024.7 98.9456 1022.12 99.8831C1021.41 100.147 1020.6 100.279 1019.68 100.279C1018.77 100.279 1017.95 100.147 1017.23 99.8831C1016.51 99.6194 1015.91 99.2532 1015.43 98.7844C1014.95 98.3157 1014.55 97.7395 1014.23 97.0559C1013.63 95.7864 1013.33 94.1897 1013.33 92.2659Z" fill="white"/>
<path d="M1797 65.5232C1799.92 65.5232 1802.72 66.6821 1804.78 68.745C1806.84 70.8079 1808 73.6058 1808 76.5232C1808 79.4406 1806.84 82.2385 1804.78 84.3014C1802.72 86.3643 1799.92 87.5232 1797 87.5232C1794.08 87.5232 1791.28 86.3643 1789.22 84.3014C1787.16 82.2385 1786 79.4406 1786 76.5232C1786 73.6058 1787.16 70.8079 1789.22 68.745C1791.28 66.6821 1794.08 65.5232 1797 65.5232ZM1797 93.0232C1809.15 93.0232 1819 97.9457 1819 104.023V109.523H1775V104.023C1775 97.9457 1784.84 93.0232 1797 93.0232Z" fill="white"/>
<path d="M1675.46 64.0002C1680.09 64.0002 1684.53 65.8395 1687.8 69.1133C1691.08 72.3872 1692.91 76.8275 1692.91 81.4574C1692.91 85.7814 1691.33 89.7562 1688.72 92.818L1689.45 93.5431H1691.57L1705 106.972L1700.97 111L1687.54 97.5717V95.45L1686.82 94.7248C1683.65 97.4287 1679.62 98.9143 1675.46 98.9145C1670.83 98.9145 1666.39 97.0753 1663.11 93.8015C1659.84 90.5276 1658 86.0873 1658 81.4574C1658 76.8275 1659.84 72.3872 1663.11 69.1133C1666.39 65.8395 1670.83 64.0002 1675.46 64.0002ZM1675.46 69.3717C1668.74 69.3717 1663.37 74.7431 1663.37 81.4574C1663.37 88.1717 1668.74 93.5431 1675.46 93.5431C1682.17 93.5431 1687.54 88.1717 1687.54 81.4574C1687.54 74.7431 1682.17 69.3717 1675.46 69.3717Z" fill="white"/>
<path d="M1564.5 95.9002C1566.99 95.9002 1569.38 94.9099 1571.15 93.147C1572.91 91.3842 1573.9 88.9933 1573.9 86.5002C1573.9 84.0072 1572.91 81.6163 1571.15 79.8534C1569.38 78.0906 1566.99 77.1002 1564.5 77.1002V95.9002Z" fill="white"/>
<path fill-rule="evenodd" clip-rule="evenodd" d="M1564.5 63.0002C1551.52 63.0002 1541 73.5212 1541 86.5002C1541 99.4793 1551.52 110 1564.5 110C1577.48 110 1588 99.4793 1588 86.5002C1588 73.5212 1577.48 63.0002 1564.5 63.0002ZM1564.5 67.7002V77.1002C1562.01 77.1002 1559.62 78.0906 1557.85 79.8534C1556.09 81.6163 1555.1 84.0072 1555.1 86.5002C1555.1 88.9933 1556.09 91.3842 1557.85 93.147C1559.62 94.9099 1562.01 95.9002 1564.5 95.9002V105.3C1569.49 105.3 1574.27 103.32 1577.79 99.7938C1581.32 96.2682 1583.3 91.4863 1583.3 86.5002C1583.3 81.5142 1581.32 76.7323 1577.79 73.2066C1574.27 69.681 1569.49 67.7002 1564.5 67.7002Z" fill="white"/>
<defs>
<clipPath id="clip0_838_1297">
<rect width="45.6477" height="87.4105" fill="white" transform="translate(63 43.0002)"/>
</clipPath>
</defs>
</svg>
