<svg width="51" height="51" viewBox="0 0 51 51" fill="none" xmlns="http://www.w3.org/2000/svg">
<path d="M50.4111 0.618841C50.124 0.333411 49.7612 0.135791 49.3655 0.0492144C48.9698 -0.0373618 48.5576 -0.00929447 48.1773 0.130117L1.37297 17.1292C0.969318 17.2822 0.6218 17.5541 0.376569 17.909C0.131338 18.2638 0 18.6848 0 19.116C0 19.5472 0.131338 19.9682 0.376569 20.323C0.6218 20.6779 0.969318 20.9499 1.37297 21.1028L19.6479 28.3912L33.1361 14.8769L36.1358 17.873L22.5838 31.4085L29.9023 49.6613C30.06 50.0567 30.3329 50.3957 30.6856 50.6343C31.0384 50.873 31.4548 51.0004 31.8809 51C32.3108 50.9912 32.728 50.8525 33.0774 50.6021C33.4268 50.3518 33.692 50.0015 33.8381 49.5976L50.8579 2.84998C51.0028 2.47403 51.0378 2.06468 50.9587 1.66965C50.8796 1.27462 50.6897 0.910185 50.4111 0.618841Z" fill="#3BB3C3"/>
</svg>
