<svg width="50" height="51" viewBox="0 0 50 51" fill="none" xmlns="http://www.w3.org/2000/svg">
<rect width="50" height="50" transform="translate(0 0.522949)" fill="white"/>
<path d="M25 0.522949C28.3152 0.522949 31.4946 1.83991 33.8388 4.18411C36.183 6.52832 37.5 9.70774 37.5 13.0229C37.5 16.3382 36.183 19.5176 33.8388 21.8618C31.4946 24.206 28.3152 25.5229 25 25.5229C21.6848 25.5229 18.5054 24.206 16.1612 21.8618C13.817 19.5176 12.5 16.3382 12.5 13.0229C12.5 9.70774 13.817 6.52832 16.1612 4.18411C18.5054 1.83991 21.6848 0.522949 25 0.522949ZM25 31.7729C38.8125 31.7729 50 37.3667 50 44.2729V50.5229H0V44.2729C0 37.3667 11.1875 31.7729 25 31.7729Z" fill="black"/>
</svg>
