<svg width="50" height="50" viewBox="0 0 50 50" fill="none" xmlns="http://www.w3.org/2000/svg">
<rect width="50" height="50" fill="black"/>
<path d="M25 35C27.6522 35 30.1957 33.9464 32.0711 32.0711C33.9464 30.1957 35 27.6522 35 25C35 22.3478 33.9464 19.8043 32.0711 17.9289C30.1957 16.0536 27.6522 15 25 15V35Z" fill="#E67016"/>
<path fill-rule="evenodd" clip-rule="evenodd" d="M25 0C11.1925 0 0 11.1925 0 25C0 38.8075 11.1925 50 25 50C38.8075 50 50 38.8075 50 25C50 11.1925 38.8075 0 25 0ZM25 5V15C22.3478 15 19.8043 16.0536 17.9289 17.9289C16.0536 19.8043 15 22.3478 15 25C15 27.6522 16.0536 30.1957 17.9289 32.0711C19.8043 33.9464 22.3478 35 25 35V45C30.3043 45 35.3914 42.8929 39.1421 39.1421C42.8929 35.3914 45 30.3043 45 25C45 19.6957 42.8929 14.6086 39.1421 10.8579C35.3914 7.10714 30.3043 5 25 5Z" fill="#E67016"/>
</svg>
