<svg width="33" height="33" viewBox="0 0 33 33" fill="none" xmlns="http://www.w3.org/2000/svg">
<path d="M16.5 0C7.38817 0 0 7.38817 0 16.5C0 25.6118 7.38817 33 16.5 33C25.6118 33 33 25.6118 33 16.5C33 7.38817 25.6118 0 16.5 0ZM16.5 30.2009C8.93505 30.2009 2.79911 24.065 2.79911 16.5C2.79911 8.93505 8.93505 2.79911 16.5 2.79911C24.065 2.79911 30.2009 8.93505 30.2009 16.5C30.2009 24.065 24.065 30.2009 16.5 30.2009Z" fill="black"/>
<path d="M14.7324 10.0179C14.7324 10.4867 14.9187 10.9364 15.2502 11.2679C15.5818 11.5995 16.0314 11.7857 16.5003 11.7857C16.9691 11.7857 17.4188 11.5995 17.7503 11.2679C18.0819 10.9364 18.2681 10.4867 18.2681 10.0179C18.2681 9.54899 18.0819 9.09933 17.7503 8.76779C17.4188 8.43626 16.9691 8.25 16.5003 8.25C16.0314 8.25 15.5818 8.43626 15.2502 8.76779C14.9187 9.09933 14.7324 9.54899 14.7324 10.0179ZM17.3842 14.1429H15.6164C15.4543 14.1429 15.3217 14.2754 15.3217 14.4375V24.4554C15.3217 24.6174 15.4543 24.75 15.6164 24.75H17.3842C17.5463 24.75 17.6789 24.6174 17.6789 24.4554V14.4375C17.6789 14.2754 17.5463 14.1429 17.3842 14.1429Z" fill="black"/>
</svg>
