<svg width="45" height="57" viewBox="0 0 45 57" fill="none" xmlns="http://www.w3.org/2000/svg">
<path d="M22.5 0C16.5348 0.00700382 10.8159 2.36849 6.59789 6.56645C2.37985 10.7644 0.00706126 16.4561 2.39377e-05 22.3929C-0.00712061 27.2444 1.58521 31.9643 4.53275 35.8286C4.53275 35.8286 5.14638 36.6327 5.24661 36.7487L22.5 57L39.7616 36.7385C39.8516 36.6306 40.4673 35.8286 40.4673 35.8286L40.4693 35.8225C43.4154 31.9599 45.007 27.2422 45 22.3929C44.9929 16.4561 42.6202 10.7644 38.4021 6.56645C34.1841 2.36849 28.4652 0.00700382 22.5 0ZM22.5 30.5357C20.8818 30.5357 19.2999 30.0581 17.9544 29.1634C16.6089 28.2686 15.5603 26.9969 14.941 25.509C14.3217 24.0211 14.1597 22.3838 14.4754 20.8043C14.7911 19.2247 15.5703 17.7738 16.7146 16.635C17.8588 15.4962 19.3167 14.7207 20.9038 14.4065C22.4909 14.0923 24.136 14.2535 25.631 14.8698C27.1261 15.4862 28.4039 16.5298 29.3029 17.8689C30.202 19.208 30.6818 20.7824 30.6818 22.3929C30.6791 24.5517 29.8162 26.6213 28.2824 28.1478C26.7486 29.6743 24.6691 30.533 22.5 30.5357Z" fill="#E4312A"/>
</svg>
