<svg width="51" height="48" viewBox="0 0 51 48" fill="none" xmlns="http://www.w3.org/2000/svg">
<path d="M17.8636 10.7559H22.9023V33.8196C22.9023 34.1196 23.1477 34.365 23.4477 34.365H27.5386C27.8386 34.365 28.0841 34.1196 28.0841 33.8196V10.7559H33.1364C33.5932 10.7559 33.8455 10.231 33.5659 9.87649L25.9295 0.209263C25.8785 0.144075 25.8133 0.0913554 25.7389 0.0550989C25.6645 0.0188424 25.5828 0 25.5 0C25.4172 0 25.3355 0.0188424 25.2611 0.0550989C25.1867 0.0913554 25.1215 0.144075 25.0705 0.209263L17.4341 9.86967C17.1545 10.231 17.4068 10.7559 17.8636 10.7559ZM50.4545 31.7743H46.3636C46.0636 31.7743 45.8182 32.0198 45.8182 32.3197V42.8187H5.18182V32.3197C5.18182 32.0198 4.93636 31.7743 4.63636 31.7743H0.545455C0.245455 31.7743 0 32.0198 0 32.3197V45.8184C0 47.0251 0.975 48 2.18182 48H48.8182C50.025 48 51 47.0251 51 45.8184V32.3197C51 32.0198 50.7545 31.7743 50.4545 31.7743Z" fill="black"/>
</svg>
