<svg width="74" height="58" viewBox="0 0 74 58" fill="none" xmlns="http://www.w3.org/2000/svg">
<path d="M71.3571 0H2.64286C1.18103 0 0 1.17813 0 2.63636V55.3636C0 56.8219 1.18103 58 2.64286 58H71.3571C72.819 58 74 56.8219 74 55.3636V2.63636C74 1.17813 72.819 0 71.3571 0ZM64.6839 8.97188L38.627 29.1977C37.9828 29.7003 37.0826 29.7003 36.4384 29.1977L10.3732 8.97188C10.275 8.89623 10.2029 8.79182 10.1671 8.67326C10.1313 8.55471 10.1336 8.42796 10.1737 8.31078C10.2138 8.1936 10.2896 8.09186 10.3905 8.01983C10.4915 7.94779 10.6125 7.90907 10.7366 7.90909H64.3205C64.4446 7.90907 64.5657 7.94779 64.6666 8.01983C64.7675 8.09186 64.8434 8.1936 64.8834 8.31078C64.9235 8.42796 64.9258 8.55471 64.89 8.67326C64.8542 8.79182 64.7822 8.89623 64.6839 8.97188Z" fill="#DB261D"/>
</svg>
