<svg width="72" height="72" viewBox="0 0 72 72" fill="none" xmlns="http://www.w3.org/2000/svg">
<path d="M67.4865 71.9999C29.097 72.0539 -0.0404578 42.57 4.21681e-05 4.51349C4.21681e-05 2.025 2.01604 0 4.50004 0H16.38C18.6075 0 20.502 1.638 20.8305 3.843C21.614 9.13074 23.1522 14.2787 25.398 19.1295L25.8615 20.1285C26.1729 20.8007 26.2398 21.5606 26.0509 22.2769C25.862 22.9933 25.4289 23.6212 24.8265 24.0525C21.1455 26.6805 19.7415 31.968 22.608 36.09C26.2035 41.265 30.735 45.801 35.91 49.3965C40.0365 52.2584 45.324 50.8544 47.9475 47.178C48.3783 46.5737 49.0068 46.1391 49.7242 45.9493C50.4416 45.7594 51.2027 45.8264 51.876 46.1385L52.8705 46.5975C57.7215 48.8474 62.8695 50.3864 68.157 51.1694C70.362 51.4979 72 53.3924 72 55.6244V67.4999C72 68.0913 71.8835 68.6768 71.657 69.223C71.4306 69.7693 71.0987 70.2656 70.6804 70.6835C70.262 71.1014 69.7654 71.4328 69.219 71.6587C68.6725 71.8846 68.0868 72.0005 67.4955 71.9999H67.4865Z" fill="#3BB3C3"/>
</svg>
