<svg width="54" height="54" viewBox="0 0 54 54" fill="none" xmlns="http://www.w3.org/2000/svg">
<path d="M20.0571 0C25.3766 0 30.4782 2.11316 34.2397 5.8746C38.0011 9.63604 40.1143 14.7377 40.1143 20.0571C40.1143 25.0251 38.2937 29.592 35.3006 33.1097L36.1337 33.9429H38.5714L54 49.3714L49.3714 54L33.9429 38.5714V36.1337L33.1097 35.3006C29.4703 38.4072 24.8422 40.114 20.0571 40.1143C14.7377 40.1143 9.63604 38.0011 5.8746 34.2397C2.11316 30.4782 0 25.3766 0 20.0571C0 14.7377 2.11316 9.63604 5.8746 5.8746C9.63604 2.11316 14.7377 0 20.0571 0ZM20.0571 6.17143C12.3429 6.17143 6.17143 12.3429 6.17143 20.0571C6.17143 27.7714 12.3429 33.9429 20.0571 33.9429C27.7714 33.9429 33.9429 27.7714 33.9429 20.0571C33.9429 12.3429 27.7714 6.17143 20.0571 6.17143Z" fill="white"/>
</svg>
