<svg width="347" height="88" viewBox="0 0 347 88" fill="none" xmlns="http://www.w3.org/2000/svg">
<g clip-path="url(#clip0_304_34)">
<path d="M10.3625 14.7438L5.18115 26.3283L13.9894 28.9612L22.7977 21.0626L31.606 28.9612L40.7563 26.3389L36.2693 14.7438L22.7977 10.5312" fill="#E67016"/>
<path d="M29.0154 70.5339L34.1967 83.1979L26.4247 76.3525L22.7978 87.4105L19.689 76.3525L12.4351 83.1979L16.4972 70.5603L29.0154 70.5339Z" fill="#CC9600"/>
<path d="M22.798 0L10.8809 12.6377L22.798 8.95168L35.2332 12.6377L22.798 0Z" fill="#67B93E"/>
<path d="M5.53369 29.0928L6.73576 48.9708L22.798 46.8645L39.8964 48.9708L40.9327 28.9612L31.6063 31.594L22.798 38.966L13.9897 31.594L5.53369 29.0928Z" fill="#DB261D"/>
<path d="M29.0156 68.454H16.5804L6.73584 51.0772L22.798 48.9709L39.8965 51.0772" fill="#0071B7"/>
<path d="M8.17617 57.1328L11.228 62.5249L0 74.2463L2.07254 60.0289L8.17617 57.1328Z" fill="#3BB3C3"/>
<path d="M38.0674 57.0483L34.8291 62.3298L45.6478 74.4409L44.0623 60.1604L38.0674 57.0483Z" fill="#3BB3C3"/>
<path d="M22.8239 23.6599L14.9985 30.4375L22.8239 36.8044L30.3231 30.4375L22.8239 23.6599Z" fill="#7A1A66"/>
</g>
<path d="M55.9565 65.0719V14.7796H60.8696V65.0719H55.9565Z" fill="white"/>
<path d="M69.0027 65.0719V30.0499H73.3846V35.826C76.4386 32.772 79.1275 30.8908 81.4513 30.1827C82.5357 29.8507 83.8967 29.6847 85.5344 29.6847C87.1721 29.6847 88.7434 30.2159 90.2483 31.2781C91.7753 32.3404 92.7823 33.9449 93.2691 36.0916C96.4781 32.8826 99.2334 30.924 101.535 30.2159C102.619 29.8618 103.77 29.6847 104.987 29.6847C107.532 29.6847 109.624 30.4593 111.262 32.0085C112.899 33.5576 113.718 35.8813 113.718 38.9797V65.0719H109.336V38.9797C109.336 37.3199 108.739 35.9809 107.544 34.9629C106.371 33.9228 105.098 33.4027 103.726 33.4027C100.473 33.4027 97.0867 35.317 93.5679 39.1456V65.0719H89.186V38.9797C89.186 37.3199 88.5885 35.9809 87.3934 34.9629C86.2205 33.9228 84.9479 33.4027 83.5758 33.4027C80.3005 33.4027 76.9034 35.317 73.3846 39.1456V65.0719H69.0027Z" fill="white"/>
<path d="M121.685 78.6824V30.0499H126.067V35.4941C126.598 34.4982 127.472 33.5023 128.69 32.5064C130.991 30.6253 133.392 29.6847 135.893 29.6847C140.541 29.6847 144.082 32.2298 146.516 37.3199C147.91 40.2411 148.607 43.439 148.607 46.9136C148.607 53.0217 147.113 57.8794 144.126 61.4867C141.957 64.1203 139.069 65.4371 135.462 65.4371C133.426 65.4371 131.456 64.8285 129.553 63.6113C127.649 62.372 126.488 61.3097 126.067 60.4245V78.6824H121.685ZM126.067 56.6401C127.085 58.1007 128.324 59.3179 129.785 60.2917C131.246 61.2433 132.629 61.7191 133.935 61.7191C135.262 61.7191 136.369 61.5974 137.254 61.3539C138.162 61.0884 139.047 60.6236 139.91 59.9597C140.795 59.2737 141.548 58.3884 142.167 57.304C143.539 54.9139 144.225 51.4504 144.225 46.9136C144.225 41.3809 142.942 37.4858 140.375 35.2285C139.003 34.0113 137.276 33.4027 135.196 33.4027C132.408 33.4027 129.973 34.5756 127.893 36.9215C127.362 37.519 126.753 38.2825 126.067 39.212V56.6401Z" fill="white"/>
<path d="M155.413 56.1421V30.0499H159.794V56.1421C159.794 57.8019 160.381 59.1519 161.554 60.1921C162.749 61.2101 164.033 61.7191 165.405 61.7191C168.68 61.7191 172.077 59.8048 175.596 55.9762V30.0499H179.978V65.0719H175.596V59.2958C172.453 62.372 169.764 64.2531 167.529 64.9391C166.445 65.2711 165.316 65.4371 164.143 65.4371C161.598 65.4371 159.507 64.6625 157.869 63.1133C156.231 61.5642 155.413 59.2405 155.413 56.1421Z" fill="white"/>
<path d="M187.945 65.1383V14.7796H192.327V65.1383H187.945Z" fill="white"/>
<path d="M200.194 58.4327L203.481 56.3081C204.654 58.1228 205.959 59.4839 207.398 60.3913C208.836 61.2765 210.596 61.7191 212.676 61.7191C214.845 61.7191 216.604 61.1326 217.954 59.9597C219.083 58.9859 219.647 57.7909 219.647 56.3745C219.647 54.9581 219.404 53.8295 218.917 52.9885C218.43 52.1475 217.744 51.4615 216.859 50.9303C215.376 50.0893 213.827 49.4808 212.211 49.1045C210.618 48.7062 209.356 48.3521 208.427 48.0422C207.52 47.7103 206.579 47.2677 205.605 46.7144C204.632 46.1611 203.791 45.5415 203.082 44.8554C201.467 43.2841 200.659 41.2149 200.659 38.6477C200.659 36.0584 201.688 33.9228 203.746 32.2408C205.827 30.5368 208.471 29.6847 211.68 29.6847C215.465 29.6847 218.663 31.0458 221.274 33.7679C221.761 34.2769 222.17 34.7748 222.502 35.2617L219.481 37.519C219.326 37.3641 219.017 37.0432 218.552 36.5563C218.087 36.0473 217.788 35.7264 217.656 35.5936L216.792 34.8965C216.394 34.5424 216.062 34.3101 215.797 34.1994L214.668 33.8011C213.96 33.5355 212.765 33.4027 211.083 33.4027C209.401 33.4027 207.951 33.8896 206.734 34.8633C205.517 35.815 204.908 36.8662 204.908 38.017C204.908 39.1678 205.107 40.0973 205.506 40.8055C205.904 41.4915 206.502 42.0891 207.298 42.5981C208.582 43.3948 210.065 44.0476 211.747 44.5566C213.429 45.0656 214.535 45.4087 215.066 45.5857C215.62 45.7628 216.35 46.0394 217.257 46.4156C218.187 46.7697 218.906 47.1128 219.415 47.4447C219.946 47.7767 220.544 48.2193 221.208 48.7726C221.871 49.3037 222.38 49.868 222.735 50.4656C223.598 51.9705 224.029 53.6082 224.029 55.3786C224.029 58.322 222.912 60.7343 220.676 62.6154C218.441 64.4965 215.852 65.4371 212.908 65.4371C209.965 65.4371 207.486 64.8838 205.473 63.7773C203.481 62.6486 201.721 60.8671 200.194 58.4327Z" fill="white"/>
<path d="M229.075 56.5405C229.075 54.9471 229.274 53.5639 229.673 52.391C230.071 51.1959 230.691 50.1447 231.532 49.2373C232.395 48.3078 233.368 47.489 234.453 46.7808C235.537 46.0726 236.887 45.4308 238.503 44.8554C241.446 43.8153 245.042 42.8747 249.292 42.0337C249.292 38.5371 248.617 36.2022 247.267 35.0293C246.072 33.9892 244.334 33.4691 242.055 33.4691C239.266 33.4691 236.865 34.5314 234.851 36.6559C233.988 37.519 233.391 38.2936 233.059 38.9797L229.905 36.8883C232.384 32.1302 236.6 29.7511 242.553 29.7511C247.886 29.7511 251.294 31.7982 252.777 35.8924C253.375 37.5522 253.673 39.5661 253.673 41.9341V60.1589C253.673 60.8007 253.795 61.6748 254.039 62.7814C254.282 63.8879 254.503 64.6514 254.703 65.0719H250.287C249.624 64.74 249.292 62.881 249.292 59.495C246.171 63.5006 242.73 65.5035 238.968 65.5035C234.807 65.5035 231.919 64.0428 230.303 61.1216C229.484 59.6388 229.075 58.1118 229.075 56.5405ZM234.287 52.7229C233.734 53.7409 233.457 55.0688 233.457 56.7065C233.457 58.3442 234.032 59.6056 235.183 60.4908C236.334 61.3539 237.607 61.7855 239.001 61.7855C240.417 61.7855 241.656 61.5753 242.719 61.1548C243.803 60.7343 244.788 60.1921 245.673 59.5282C247.289 58.311 248.495 57.2265 249.292 56.2749V45.7517C245.087 46.8361 242.597 47.5 241.822 47.7435C237.927 49.0049 235.416 50.6648 234.287 52.7229Z" fill="white"/>
<path d="M261.574 50.2V14.7796H269.508V48.3078C269.508 53.9069 271.312 57.3815 274.919 58.7314C275.849 59.0855 276.889 59.2626 278.04 59.2626C279.19 59.2626 280.23 59.1077 281.16 58.7978C282.089 58.488 282.842 58.1007 283.417 57.636C283.993 57.1712 284.491 56.5848 284.911 55.8766C285.332 55.1462 285.641 54.4823 285.841 53.8848C286.04 53.2873 286.206 52.5791 286.339 51.7602C286.471 50.6979 286.538 49.5471 286.538 48.3078V14.7796H294.638V50.2C294.638 55.268 292.967 59.2847 289.625 62.2502C286.859 64.7068 283.008 65.935 278.073 65.935C270.57 65.935 265.591 63.0912 263.134 57.4036C262.094 55.0577 261.574 52.6565 261.574 50.2Z" fill="white"/>
<path d="M301.742 65.0719V14.7796H309.676V65.0719H301.742Z" fill="white"/>
<path d="M313.792 52.1918L320.166 50.1004C320.188 50.1004 320.232 50.2664 320.298 50.5984C320.365 50.9303 320.475 51.3729 320.63 51.9262C320.807 52.4573 321.04 53.0549 321.327 53.7188C321.637 54.3606 322.08 55.0135 322.655 55.6774C323.231 56.3192 323.906 56.9057 324.68 57.4368C326.406 58.654 328.553 59.2626 331.12 59.2626C333.688 59.2626 335.569 58.6319 336.764 57.3704C337.981 56.1089 338.59 54.6151 338.59 52.8889C338.59 51.1406 338.412 49.7353 338.058 48.673C337.704 47.5886 337.085 46.648 336.199 45.8513C334.717 44.5234 332.149 43.3284 328.498 42.2661C322.058 40.385 317.919 37.4748 316.082 33.5355C315.131 31.4773 314.655 29.054 314.655 26.2655C314.655 23.9196 315.485 21.6291 317.145 19.3939C320.044 15.698 324.16 13.8501 329.494 13.8501C333.721 13.8501 337.184 15.1226 339.884 17.6677C341.81 19.4603 343.248 21.7176 344.2 24.4397L344.83 26.1991C345.03 26.7302 345.162 27.0733 345.229 27.2282L338.756 29.5187C337.295 24.8713 335.015 22.0053 331.917 20.9209C331.143 20.6553 330.335 20.5225 329.494 20.5225C324.891 20.5225 322.589 22.8905 322.589 27.6265C322.589 29.7954 323.231 31.4552 324.514 32.606C325.577 33.6019 326.971 34.3875 328.697 34.9629L330.29 35.4941C331.198 35.8039 331.696 35.9699 331.784 35.992L333.245 36.4899C337.029 37.8178 339.585 38.9907 340.913 40.0088C342.861 41.5136 344.133 42.8968 344.731 44.1583C345.926 46.7476 346.523 49.4808 346.523 52.3578C346.523 54.6151 345.882 56.9056 344.598 59.2294C342.872 62.3498 340.139 64.3969 336.399 65.3707C334.96 65.7469 333.389 65.935 331.685 65.935C329.981 65.935 328.376 65.7801 326.871 65.4703C325.388 65.1604 324.105 64.74 323.02 64.2088C321.936 63.6777 320.94 63.0691 320.033 62.383C319.125 61.697 318.362 60.9777 317.742 60.2253C317.123 59.4507 316.58 58.6872 316.116 57.9347C315.651 57.1602 315.275 56.4298 314.987 55.7438C314.721 55.0577 314.5 54.4491 314.323 53.918C314.146 53.3868 314.013 52.9664 313.925 52.6565C313.858 52.3467 313.814 52.1918 313.792 52.1918Z" fill="white"/>
<path d="M305.745 0L294 10.2604L305.745 7.26781L318 10.2604L305.745 0Z" fill="#67B93E"/>
<defs>
<clipPath id="clip0_304_34">
<rect width="45.6477" height="87.4105" fill="white"/>
</clipPath>
</defs>
</svg>
